# Tiled2Unity generated file. Do not modify by hand.
# Wavefront file for 'test-for-tile-sets_mesh_0009.obj'

# Vertices (Count = 12)
v -28.48 -6.08 0
v -28.8 -6.08 0
v -28.8 -5.76 0
v -28.48 -5.76 0
v -28.48 -6.4 0
v -28.8 -6.4 0
v -28.8 -6.08 0
v -28.48 -6.08 0
v -28.8 -6.4 0
v -29.12 -6.4 0
v -29.12 -6.08 0
v -28.8 -6.08 0

# Texture cooridinates (Count = 12)
vt 0.46328 0.2667887
vt 0.5051411 0.2667887
vt 0.5051411 0.2998779
vt 0.46328 0.2998779
vt 0.46328 0.2334554
vt 0.5051411 0.2334554
vt 0.5051411 0.2665446
vt 0.46328 0.2665446
vt 0.5053852 0.2334554
vt 0.5472463 0.2334554
vt 0.5472463 0.2665446
vt 0.5053852 0.2665446

# Normal
vn 0 0 -1

# Mesh description
g test-for-tile-sets_mesh_0009

# Faces
f 1/1/1 2/2/1 3/3/1 4/4/1
f 5/5/1 6/6/1 7/7/1 8/8/1
f 9/9/1 10/10/1 11/11/1 12/12/1

