# Tiled2Unity generated file. Do not modify by hand.
# Wavefront file for 'test-for-tile-sets_mesh_0012.obj'

# Vertices (Count = 368)
v -4.48 -0.32 0
v -4.8 -0.32 0
v -4.8 0 0
v -4.48 0 0
v -4.8 -0.32 0
v -5.12 -0.32 0
v -5.12 0 0
v -4.8 0 0
v -25.92 -0.32 0
v -26.24 -0.32 0
v -26.24 0 0
v -25.92 0 0
v -26.24 -0.32 0
v -26.56 -0.32 0
v -26.56 0 0
v -26.24 0 0
v -29.44 -0.32 0
v -29.76 -0.32 0
v -29.76 0 0
v -29.44 0 0
v -29.76 -0.32 0
v -30.08 -0.32 0
v -30.08 0 0
v -29.76 0 0
v -4.48 -0.64 0
v -4.8 -0.64 0
v -4.8 -0.32 0
v -4.48 -0.32 0
v -4.8 -0.64 0
v -5.12 -0.64 0
v -5.12 -0.32 0
v -4.8 -0.32 0
v -5.12 -0.64 0
v -5.44 -0.64 0
v -5.44 -0.32 0
v -5.12 -0.32 0
v -5.44 -0.64 0
v -5.76 -0.64 0
v -5.76 -0.32 0
v -5.44 -0.32 0
v -25.92 -0.64 0
v -26.24 -0.64 0
v -26.24 -0.32 0
v -25.92 -0.32 0
v -26.24 -0.64 0
v -26.56 -0.64 0
v -26.56 -0.32 0
v -26.24 -0.32 0
v -29.44 -0.64 0
v -29.76 -0.64 0
v -29.76 -0.32 0
v -29.44 -0.32 0
v -29.76 -0.64 0
v -30.08 -0.64 0
v -30.08 -0.32 0
v -29.76 -0.32 0
v -4.48 -0.96 0
v -4.8 -0.96 0
v -4.8 -0.64 0
v -4.48 -0.64 0
v -4.8 -0.96 0
v -5.12 -0.96 0
v -5.12 -0.64 0
v -4.8 -0.64 0
v -5.12 -0.96 0
v -5.44 -0.96 0
v -5.44 -0.64 0
v -5.12 -0.64 0
v -5.44 -0.96 0
v -5.76 -0.96 0
v -5.76 -0.64 0
v -5.44 -0.64 0
v -25.92 -0.96 0
v -26.24 -0.96 0
v -26.24 -0.64 0
v -25.92 -0.64 0
v -26.24 -0.96 0
v -26.56 -0.96 0
v -26.56 -0.64 0
v -26.24 -0.64 0
v -29.44 -0.96 0
v -29.76 -0.96 0
v -29.76 -0.64 0
v -29.44 -0.64 0
v -29.76 -0.96 0
v -30.08 -0.96 0
v -30.08 -0.64 0
v -29.76 -0.64 0
v -4.48 -1.28 0
v -4.8 -1.28 0
v -4.8 -0.96 0
v -4.48 -0.96 0
v -4.8 -1.28 0
v -5.12 -1.28 0
v -5.12 -0.96 0
v -4.8 -0.96 0
v -5.12 -1.28 0
v -5.44 -1.28 0
v -5.44 -0.96 0
v -5.12 -0.96 0
v -5.44 -1.28 0
v -5.76 -1.28 0
v -5.76 -0.96 0
v -5.44 -0.96 0
v -25.28 -1.28 0
v -25.6 -1.28 0
v -25.6 -0.96 0
v -25.28 -0.96 0
v -25.92 -1.28 0
v -26.24 -1.28 0
v -26.24 -0.96 0
v -25.92 -0.96 0
v -26.24 -1.28 0
v -26.56 -1.28 0
v -26.56 -0.96 0
v -26.24 -0.96 0
v -29.44 -1.28 0
v -29.76 -1.28 0
v -29.76 -0.96 0
v -29.44 -0.96 0
v -29.76 -1.28 0
v -30.08 -1.28 0
v -30.08 -0.96 0
v -29.76 -0.96 0
v -30.08 -1.28 0
v -30.4 -1.28 0
v -30.4 -0.96 0
v -30.08 -0.96 0
v -30.4 -1.28 0
v -30.72 -1.28 0
v -30.72 -0.96 0
v -30.4 -0.96 0
v -4.8 -1.6 0
v -5.12 -1.6 0
v -5.12 -1.28 0
v -4.8 -1.28 0
v -5.12 -1.6 0
v -5.44 -1.6 0
v -5.44 -1.28 0
v -5.12 -1.28 0
v -5.44 -1.6 0
v -5.76 -1.6 0
v -5.76 -1.28 0
v -5.44 -1.28 0
v -30.08 -1.6 0
v -30.4 -1.6 0
v -30.4 -1.28 0
v -30.08 -1.28 0
v -30.4 -1.6 0
v -30.72 -1.6 0
v -30.72 -1.28 0
v -30.4 -1.28 0
v -4.8 -1.92 0
v -5.12 -1.92 0
v -5.12 -1.6 0
v -4.8 -1.6 0
v -5.12 -1.92 0
v -5.44 -1.92 0
v -5.44 -1.6 0
v -5.12 -1.6 0
v -30.08 -1.92 0
v -30.4 -1.92 0
v -30.4 -1.6 0
v -30.08 -1.6 0
v -30.4 -1.92 0
v -30.72 -1.92 0
v -30.72 -1.6 0
v -30.4 -1.6 0
v -30.08 -2.24 0
v -30.4 -2.24 0
v -30.4 -1.92 0
v -30.08 -1.92 0
v -30.4 -2.24 0
v -30.72 -2.24 0
v -30.72 -1.92 0
v -30.4 -1.92 0
v -28.16 -3.2 0
v -28.48 -3.2 0
v -28.48 -2.88 0
v -28.16 -2.88 0
v -28.48 -3.2 0
v -28.8 -3.2 0
v -28.8 -2.88 0
v -28.48 -2.88 0
v -25.92 -3.84 0
v -26.24 -3.84 0
v -26.24 -3.52 0
v -25.92 -3.52 0
v -25.92 -4.16 0
v -26.24 -4.16 0
v -26.24 -3.84 0
v -25.92 -3.84 0
v -29.76 -4.16 0
v -30.08 -4.16 0
v -30.08 -3.84 0
v -29.76 -3.84 0
v -30.08 -4.16 0
v -30.4 -4.16 0
v -30.4 -3.84 0
v -30.08 -3.84 0
v -30.4 -4.16 0
v -30.72 -4.16 0
v -30.72 -3.84 0
v -30.4 -3.84 0
v -25.92 -4.48 0
v -26.24 -4.48 0
v -26.24 -4.16 0
v -25.92 -4.16 0
v -29.76 -4.48 0
v -30.08 -4.48 0
v -30.08 -4.16 0
v -29.76 -4.16 0
v -30.08 -4.48 0
v -30.4 -4.48 0
v -30.4 -4.16 0
v -30.08 -4.16 0
v -30.4 -4.48 0
v -30.72 -4.48 0
v -30.72 -4.16 0
v -30.4 -4.16 0
v -29.76 -4.8 0
v -30.08 -4.8 0
v -30.08 -4.48 0
v -29.76 -4.48 0
v -30.08 -4.8 0
v -30.4 -4.8 0
v -30.4 -4.48 0
v -30.08 -4.48 0
v -30.4 -4.8 0
v -30.72 -4.8 0
v -30.72 -4.48 0
v -30.4 -4.48 0
v -26.88 -5.12 0
v -27.2 -5.12 0
v -27.2 -4.8 0
v -26.88 -4.8 0
v -29.76 -5.12 0
v -30.08 -5.12 0
v -30.08 -4.8 0
v -29.76 -4.8 0
v -30.08 -5.12 0
v -30.4 -5.12 0
v -30.4 -4.8 0
v -30.08 -4.8 0
v -30.4 -5.12 0
v -30.72 -5.12 0
v -30.72 -4.8 0
v -30.4 -4.8 0
v -29.76 -5.44 0
v -30.08 -5.44 0
v -30.08 -5.12 0
v -29.76 -5.12 0
v -30.08 -5.44 0
v -30.4 -5.44 0
v -30.4 -5.12 0
v -30.08 -5.12 0
v -30.4 -5.44 0
v -30.72 -5.44 0
v -30.72 -5.12 0
v -30.4 -5.12 0
v -29.12 -6.08 0
v -29.44 -6.08 0
v -29.44 -5.76 0
v -29.12 -5.76 0
v -29.44 -6.08 0
v -29.76 -6.08 0
v -29.76 -5.76 0
v -29.44 -5.76 0
v -29.76 -6.08 0
v -30.08 -6.08 0
v -30.08 -5.76 0
v -29.76 -5.76 0
v -29.12 -6.4 0
v -29.44 -6.4 0
v -29.44 -6.08 0
v -29.12 -6.08 0
v -29.44 -6.4 0
v -29.76 -6.4 0
v -29.76 -6.08 0
v -29.44 -6.08 0
v -29.76 -6.4 0
v -30.08 -6.4 0
v -30.08 -6.08 0
v -29.76 -6.08 0
v -29.12 -6.72 0
v -29.44 -6.72 0
v -29.44 -6.4 0
v -29.12 -6.4 0
v -29.44 -6.72 0
v -29.76 -6.72 0
v -29.76 -6.4 0
v -29.44 -6.4 0
v -29.76 -6.72 0
v -30.08 -6.72 0
v -30.08 -6.4 0
v -29.76 -6.4 0
v -29.12 -7.04 0
v -29.44 -7.04 0
v -29.44 -6.72 0
v -29.12 -6.72 0
v -29.44 -7.04 0
v -29.76 -7.04 0
v -29.76 -6.72 0
v -29.44 -6.72 0
v -29.76 -7.04 0
v -30.08 -7.04 0
v -30.08 -6.72 0
v -29.76 -6.72 0
v -29.12 -7.36 0
v -29.44 -7.36 0
v -29.44 -7.04 0
v -29.12 -7.04 0
v -29.44 -7.36 0
v -29.76 -7.36 0
v -29.76 -7.04 0
v -29.44 -7.04 0
v -29.76 -7.36 0
v -30.08 -7.36 0
v -30.08 -7.04 0
v -29.76 -7.04 0
v -27.84 -12.48 0
v -28.16 -12.48 0
v -28.16 -12.16 0
v -27.84 -12.16 0
v -28.16 -12.48 0
v -28.48 -12.48 0
v -28.48 -12.16 0
v -28.16 -12.16 0
v -27.84 -12.8 0
v -28.16 -12.8 0
v -28.16 -12.48 0
v -27.84 -12.48 0
v -28.16 -12.8 0
v -28.48 -12.8 0
v -28.48 -12.48 0
v -28.16 -12.48 0
v -28.48 -12.8 0
v -28.8 -12.8 0
v -28.8 -12.48 0
v -28.48 -12.48 0
v -28.8 -12.8 0
v -29.12 -12.8 0
v -29.12 -12.48 0
v -28.8 -12.48 0
v -27.84 -13.12 0
v -28.16 -13.12 0
v -28.16 -12.8 0
v -27.84 -12.8 0
v -28.16 -13.12 0
v -28.48 -13.12 0
v -28.48 -12.8 0
v -28.16 -12.8 0
v -28.48 -13.12 0
v -28.8 -13.12 0
v -28.8 -12.8 0
v -28.48 -12.8 0
v -28.8 -13.12 0
v -29.12 -13.12 0
v -29.12 -12.8 0
v -28.8 -12.8 0
v -28.48 -13.44 0
v -28.8 -13.44 0
v -28.8 -13.12 0
v -28.48 -13.12 0
v -28.8 -13.44 0
v -29.12 -13.44 0
v -29.12 -13.12 0
v -28.8 -13.12 0

# Texture cooridinates (Count = 184)
vt 0.0001220703 0.6001221
vt 0.04198319 0.6001221
vt 0.04198319 0.6332113
vt 0.0001220703 0.6332113
vt 0.04222734 0.6001221
vt 0.08408846 0.6001221
vt 0.08408846 0.6332113
vt 0.04222734 0.6332113
vt 0.0001220703 0.5667887
vt 0.04198319 0.5667887
vt 0.04198319 0.599878
vt 0.0001220703 0.599878
vt 0.04222734 0.5667887
vt 0.08408846 0.5667887
vt 0.08408846 0.599878
vt 0.04222734 0.599878
vt 0.0001220703 0.5334554
vt 0.04198319 0.5334554
vt 0.04198319 0.5665446
vt 0.0001220703 0.5665446
vt 0.04222734 0.5334554
vt 0.08408846 0.5334554
vt 0.08408846 0.5665446
vt 0.04222734 0.5665446
vt 0.0001220703 0.5001221
vt 0.04198319 0.5001221
vt 0.04198319 0.5332112
vt 0.0001220703 0.5332112
vt 0.04222734 0.5001221
vt 0.08408846 0.5001221
vt 0.08408846 0.5332112
vt 0.04222734 0.5332112
vt 0.0001220703 0.900122
vt 0.04198319 0.900122
vt 0.04198319 0.9332113
vt 0.0001220703 0.9332113
vt 0.1685431 0.9334554
vt 0.2104042 0.9334554
vt 0.2104042 0.9665446
vt 0.1685431 0.9665446
vt 0.2106484 0.9334554
vt 0.2525095 0.9334554
vt 0.2525095 0.9665446
vt 0.2106484 0.9665446
vt 0.0843326 0.6667887
vt 0.1261937 0.6667887
vt 0.1261937 0.6998779
vt 0.0843326 0.6998779
vt 0.04222734 0.6334554
vt 0.08408846 0.6334554
vt 0.08408846 0.6665446
vt 0.04222734 0.6665446
vt 0.0001220703 0.4667887
vt 0.04198319 0.4667887
vt 0.04198319 0.4998779
vt 0.0001220703 0.4998779
vt 0.04222734 0.4667887
vt 0.08408846 0.4667887
vt 0.08408846 0.4998779
vt 0.04222734 0.4998779
vt 0.0843326 0.4667887
vt 0.1261937 0.4667887
vt 0.1261937 0.4998779
vt 0.0843326 0.4998779
vt 0.0843326 0.8667887
vt 0.1261937 0.8667887
vt 0.1261937 0.8998779
vt 0.0843326 0.8998779
vt 0.0001220703 0.4334554
vt 0.04198319 0.4334554
vt 0.04198319 0.4665446
vt 0.0001220703 0.4665446
vt 0.04222734 0.4334554
vt 0.08408846 0.4334554
vt 0.08408846 0.4665446
vt 0.04222734 0.4665446
vt 0.0843326 0.4334554
vt 0.1261937 0.4334554
vt 0.1261937 0.4665446
vt 0.0843326 0.4665446
vt 0.0001220703 0.400122
vt 0.04198319 0.400122
vt 0.04198319 0.4332113
vt 0.0001220703 0.4332113
vt 0.04222734 0.400122
vt 0.08408846 0.400122
vt 0.08408846 0.4332113
vt 0.04222734 0.4332113
vt 0.0843326 0.400122
vt 0.1261937 0.400122
vt 0.1261937 0.4332113
vt 0.0843326 0.4332113
vt 0.0001220703 0.3667887
vt 0.04198319 0.3667887
vt 0.04198319 0.3998779
vt 0.0001220703 0.3998779
vt 0.04222734 0.3667887
vt 0.08408846 0.3667887
vt 0.08408846 0.3998779
vt 0.04222734 0.3998779
vt 0.0843326 0.3667887
vt 0.1261937 0.3667887
vt 0.1261937 0.3998779
vt 0.0843326 0.3998779
vt 0.0001220703 0.3334554
vt 0.04198319 0.3334554
vt 0.04198319 0.3665446
vt 0.0001220703 0.3665446
vt 0.04222734 0.3334554
vt 0.08408846 0.3334554
vt 0.08408846 0.3665446
vt 0.04222734 0.3665446
vt 0.0843326 0.3334554
vt 0.1261937 0.3334554
vt 0.1261937 0.3665446
vt 0.0843326 0.3665446
vt 0.0001220703 0.3001221
vt 0.04198319 0.3001221
vt 0.04198319 0.3332112
vt 0.0001220703 0.3332112
vt 0.04222734 0.3001221
vt 0.08408846 0.3001221
vt 0.08408846 0.3332112
vt 0.04222734 0.3332112
vt 0.0843326 0.3001221
vt 0.1261937 0.3001221
vt 0.1261937 0.3332112
vt 0.0843326 0.3332112
vt 0.0001220703 0.2667887
vt 0.04198319 0.2667887
vt 0.04198319 0.2998779
vt 0.0001220703 0.2998779
vt 0.04222734 0.2667887
vt 0.08408846 0.2667887
vt 0.08408846 0.2998779
vt 0.04222734 0.2998779
vt 0.0843326 0.2667887
vt 0.1261937 0.2667887
vt 0.1261937 0.2998779
vt 0.0843326 0.2998779
vt 0.0001220703 0.2334554
vt 0.04198319 0.2334554
vt 0.04198319 0.2665446
vt 0.0001220703 0.2665446
vt 0.04222734 0.2334554
vt 0.08408846 0.2334554
vt 0.08408846 0.2665446
vt 0.04222734 0.2665446
vt 0.0843326 0.2334554
vt 0.1261937 0.2334554
vt 0.1261937 0.2665446
vt 0.0843326 0.2665446
vt 0.0001220703 0.2001221
vt 0.04198319 0.2001221
vt 0.04198319 0.2332113
vt 0.0001220703 0.2332113
vt 0.04222734 0.2001221
vt 0.08408846 0.2001221
vt 0.08408846 0.2332113
vt 0.04222734 0.2332113
vt 0.0843326 0.2001221
vt 0.1261937 0.2001221
vt 0.1261937 0.2332113
vt 0.0843326 0.2332113
vt 0.0001220703 0.1667888
vt 0.04198319 0.1667888
vt 0.04198319 0.1998779
vt 0.0001220703 0.1998779
vt 0.04222734 0.1667888
vt 0.08408846 0.1667888
vt 0.08408846 0.1998779
vt 0.04222734 0.1998779
vt 0.0843326 0.1667888
vt 0.1261937 0.1667888
vt 0.1261937 0.1998779
vt 0.0843326 0.1998779
vt 0.1264379 0.6001221
vt 0.168299 0.6001221
vt 0.168299 0.6332113
vt 0.1264379 0.6332113
vt 0.1685431 0.6001221
vt 0.2104042 0.6001221
vt 0.2104042 0.6332113
vt 0.1685431 0.6332113

# Normal
vn 0 0 -1

# Mesh description
g test-for-tile-sets_mesh_0012

# Faces
f 1/1/1 2/2/1 3/3/1 4/4/1
f 5/5/1 6/6/1 7/7/1 8/8/1
f 9/1/1 10/2/1 11/3/1 12/4/1
f 13/5/1 14/6/1 15/7/1 16/8/1
f 17/1/1 18/2/1 19/3/1 20/4/1
f 21/5/1 22/6/1 23/7/1 24/8/1
f 25/9/1 26/10/1 27/11/1 28/12/1
f 29/13/1 30/14/1 31/15/1 32/16/1
f 33/1/1 34/2/1 35/3/1 36/4/1
f 37/5/1 38/6/1 39/7/1 40/8/1
f 41/9/1 42/10/1 43/11/1 44/12/1
f 45/13/1 46/14/1 47/15/1 48/16/1
f 49/9/1 50/10/1 51/11/1 52/12/1
f 53/13/1 54/14/1 55/15/1 56/16/1
f 57/17/1 58/18/1 59/19/1 60/20/1
f 61/21/1 62/22/1 63/23/1 64/24/1
f 65/9/1 66/10/1 67/11/1 68/12/1
f 69/13/1 70/14/1 71/15/1 72/16/1
f 73/17/1 74/18/1 75/19/1 76/20/1
f 77/21/1 78/22/1 79/23/1 80/24/1
f 81/17/1 82/18/1 83/19/1 84/20/1
f 85/21/1 86/22/1 87/23/1 88/24/1
f 89/25/1 90/26/1 91/27/1 92/28/1
f 93/29/1 94/30/1 95/31/1 96/32/1
f 97/17/1 98/18/1 99/19/1 100/20/1
f 101/21/1 102/22/1 103/23/1 104/24/1
f 105/33/1 106/34/1 107/35/1 108/36/1
f 109/25/1 110/26/1 111/27/1 112/28/1
f 113/29/1 114/30/1 115/31/1 116/32/1
f 117/25/1 118/26/1 119/27/1 120/28/1
f 121/29/1 122/30/1 123/31/1 124/32/1
f 125/1/1 126/2/1 127/3/1 128/4/1
f 129/5/1 130/6/1 131/7/1 132/8/1
f 133/17/1 134/18/1 135/19/1 136/20/1
f 137/25/1 138/26/1 139/27/1 140/28/1
f 141/29/1 142/30/1 143/31/1 144/32/1
f 145/9/1 146/10/1 147/11/1 148/12/1
f 149/13/1 150/14/1 151/15/1 152/16/1
f 153/25/1 154/26/1 155/27/1 156/28/1
f 157/29/1 158/30/1 159/31/1 160/32/1
f 161/17/1 162/18/1 163/19/1 164/20/1
f 165/21/1 166/22/1 167/23/1 168/24/1
f 169/25/1 170/26/1 171/27/1 172/28/1
f 173/29/1 174/30/1 175/31/1 176/32/1
f 177/37/1 178/38/1 179/39/1 180/40/1
f 181/41/1 182/42/1 183/43/1 184/44/1
f 185/45/1 186/46/1 187/47/1 188/48/1
f 189/49/1 190/50/1 191/51/1 192/52/1
f 193/53/1 194/54/1 195/55/1 196/56/1
f 197/57/1 198/58/1 199/59/1 200/60/1
f 201/61/1 202/62/1 203/63/1 204/64/1
f 205/65/1 206/66/1 207/67/1 208/68/1
f 209/69/1 210/70/1 211/71/1 212/72/1
f 213/73/1 214/74/1 215/75/1 216/76/1
f 217/77/1 218/78/1 219/79/1 220/80/1
f 221/81/1 222/82/1 223/83/1 224/84/1
f 225/85/1 226/86/1 227/87/1 228/88/1
f 229/89/1 230/90/1 231/91/1 232/92/1
f 233/49/1 234/50/1 235/51/1 236/52/1
f 237/93/1 238/94/1 239/95/1 240/96/1
f 241/97/1 242/98/1 243/99/1 244/100/1
f 245/101/1 246/102/1 247/103/1 248/104/1
f 249/105/1 250/106/1 251/107/1 252/108/1
f 253/109/1 254/110/1 255/111/1 256/112/1
f 257/113/1 258/114/1 259/115/1 260/116/1
f 261/117/1 262/118/1 263/119/1 264/120/1
f 265/121/1 266/122/1 267/123/1 268/124/1
f 269/125/1 270/126/1 271/127/1 272/128/1
f 273/129/1 274/130/1 275/131/1 276/132/1
f 277/133/1 278/134/1 279/135/1 280/136/1
f 281/137/1 282/138/1 283/139/1 284/140/1
f 285/141/1 286/142/1 287/143/1 288/144/1
f 289/145/1 290/146/1 291/147/1 292/148/1
f 293/149/1 294/150/1 295/151/1 296/152/1
f 297/153/1 298/154/1 299/155/1 300/156/1
f 301/157/1 302/158/1 303/159/1 304/160/1
f 305/161/1 306/162/1 307/163/1 308/164/1
f 309/165/1 310/166/1 311/167/1 312/168/1
f 313/169/1 314/170/1 315/171/1 316/172/1
f 317/173/1 318/174/1 319/175/1 320/176/1
f 321/177/1 322/178/1 323/179/1 324/180/1
f 325/181/1 326/182/1 327/183/1 328/184/1
f 329/17/1 330/18/1 331/19/1 332/20/1
f 333/21/1 334/22/1 335/23/1 336/24/1
f 337/177/1 338/178/1 339/179/1 340/180/1
f 341/73/1 342/74/1 343/75/1 344/76/1
f 345/25/1 346/26/1 347/27/1 348/28/1
f 349/29/1 350/30/1 351/31/1 352/32/1
f 353/17/1 354/18/1 355/19/1 356/20/1
f 357/21/1 358/22/1 359/23/1 360/24/1
f 361/25/1 362/26/1 363/27/1 364/28/1
f 365/29/1 366/30/1 367/31/1 368/32/1

