# Tiled2Unity generated file. Do not modify by hand.
# Wavefront file for 'test-for-tile-sets_mesh_0005.obj'

# Vertices (Count = 320)
v -7.04 -10.24 0
v -7.36 -10.24 0
v -7.36 -9.92 0
v -7.04 -9.92 0
v -7.36 -10.24 0
v -7.68 -10.24 0
v -7.68 -9.92 0
v -7.36 -9.92 0
v -7.04 -10.56 0
v -7.36 -10.56 0
v -7.36 -10.24 0
v -7.04 -10.24 0
v -7.36 -10.56 0
v -7.68 -10.56 0
v -7.68 -10.24 0
v -7.36 -10.24 0
v -5.44 -10.88 0
v -5.76 -10.88 0
v -5.76 -10.56 0
v -5.44 -10.56 0
v -5.76 -10.88 0
v -6.08 -10.88 0
v -6.08 -10.56 0
v -5.76 -10.56 0
v -7.04 -10.88 0
v -7.36 -10.88 0
v -7.36 -10.56 0
v -7.04 -10.56 0
v -7.36 -10.88 0
v -7.68 -10.88 0
v -7.68 -10.56 0
v -7.36 -10.56 0
v -5.44 -11.2 0
v -5.76 -11.2 0
v -5.76 -10.88 0
v -5.44 -10.88 0
v -5.76 -11.2 0
v -6.08 -11.2 0
v -6.08 -10.88 0
v -5.76 -10.88 0
v -7.04 -11.2 0
v -7.36 -11.2 0
v -7.36 -10.88 0
v -7.04 -10.88 0
v -7.36 -11.2 0
v -7.68 -11.2 0
v -7.68 -10.88 0
v -7.36 -10.88 0
v -2.88 -11.52 0
v -3.2 -11.52 0
v -3.2 -11.2 0
v -2.88 -11.2 0
v -3.2 -11.52 0
v -3.52 -11.52 0
v -3.52 -11.2 0
v -3.2 -11.2 0
v -5.44 -11.52 0
v -5.76 -11.52 0
v -5.76 -11.2 0
v -5.44 -11.2 0
v -5.76 -11.52 0
v -6.08 -11.52 0
v -6.08 -11.2 0
v -5.76 -11.2 0
v -1.92 -11.84 0
v -2.24 -11.84 0
v -2.24 -11.52 0
v -1.92 -11.52 0
v -2.24 -11.84 0
v -2.56 -11.84 0
v -2.56 -11.52 0
v -2.24 -11.52 0
v -2.88 -11.84 0
v -3.2 -11.84 0
v -3.2 -11.52 0
v -2.88 -11.52 0
v -3.2 -11.84 0
v -3.52 -11.84 0
v -3.52 -11.52 0
v -3.2 -11.52 0
v -5.44 -11.84 0
v -5.76 -11.84 0
v -5.76 -11.52 0
v -5.44 -11.52 0
v -5.76 -11.84 0
v -6.08 -11.84 0
v -6.08 -11.52 0
v -5.76 -11.52 0
v -1.92 -12.16 0
v -2.24 -12.16 0
v -2.24 -11.84 0
v -1.92 -11.84 0
v -2.24 -12.16 0
v -2.56 -12.16 0
v -2.56 -11.84 0
v -2.24 -11.84 0
v -2.88 -12.16 0
v -3.2 -12.16 0
v -3.2 -11.84 0
v -2.88 -11.84 0
v -3.2 -12.16 0
v -3.52 -12.16 0
v -3.52 -11.84 0
v -3.2 -11.84 0
v -1.92 -12.48 0
v -2.24 -12.48 0
v -2.24 -12.16 0
v -1.92 -12.16 0
v -2.24 -12.48 0
v -2.56 -12.48 0
v -2.56 -12.16 0
v -2.24 -12.16 0
v -2.88 -12.48 0
v -3.2 -12.48 0
v -3.2 -12.16 0
v -2.88 -12.16 0
v -3.2 -12.48 0
v -3.52 -12.48 0
v -3.52 -12.16 0
v -3.2 -12.16 0
v -3.84 -12.48 0
v -4.16 -12.48 0
v -4.16 -12.16 0
v -3.84 -12.16 0
v -4.16 -12.48 0
v -4.48 -12.48 0
v -4.48 -12.16 0
v -4.16 -12.16 0
v -1.92 -12.8 0
v -2.24 -12.8 0
v -2.24 -12.48 0
v -1.92 -12.48 0
v -2.24 -12.8 0
v -2.56 -12.8 0
v -2.56 -12.48 0
v -2.24 -12.48 0
v -3.84 -12.8 0
v -4.16 -12.8 0
v -4.16 -12.48 0
v -3.84 -12.48 0
v -4.16 -12.8 0
v -4.48 -12.8 0
v -4.48 -12.48 0
v -4.16 -12.48 0
v -0.64 -13.12 0
v -0.96 -13.12 0
v -0.96 -12.8 0
v -0.64 -12.8 0
v -0.96 -13.12 0
v -1.28 -13.12 0
v -1.28 -12.8 0
v -0.96 -12.8 0
v -3.84 -13.12 0
v -4.16 -13.12 0
v -4.16 -12.8 0
v -3.84 -12.8 0
v -4.16 -13.12 0
v -4.48 -13.12 0
v -4.48 -12.8 0
v -4.16 -12.8 0
v -0.64 -13.44 0
v -0.96 -13.44 0
v -0.96 -13.12 0
v -0.64 -13.12 0
v -0.96 -13.44 0
v -1.28 -13.44 0
v -1.28 -13.12 0
v -0.96 -13.12 0
v -3.84 -13.44 0
v -4.16 -13.44 0
v -4.16 -13.12 0
v -3.84 -13.12 0
v -4.16 -13.44 0
v -4.48 -13.44 0
v -4.48 -13.12 0
v -4.16 -13.12 0
v -0.64 -13.76 0
v -0.96 -13.76 0
v -0.96 -13.44 0
v -0.64 -13.44 0
v -0.96 -13.76 0
v -1.28 -13.76 0
v -1.28 -13.44 0
v -0.96 -13.44 0
v -5.12 -13.76 0
v -5.44 -13.76 0
v -5.44 -13.44 0
v -5.12 -13.44 0
v -5.44 -13.76 0
v -5.76 -13.76 0
v -5.76 -13.44 0
v -5.44 -13.44 0
v -0.64 -14.08 0
v -0.96 -14.08 0
v -0.96 -13.76 0
v -0.64 -13.76 0
v -0.96 -14.08 0
v -1.28 -14.08 0
v -1.28 -13.76 0
v -0.96 -13.76 0
v -5.12 -14.08 0
v -5.44 -14.08 0
v -5.44 -13.76 0
v -5.12 -13.76 0
v -5.44 -14.08 0
v -5.76 -14.08 0
v -5.76 -13.76 0
v -5.44 -13.76 0
v -6.08 -14.08 0
v -6.4 -14.08 0
v -6.4 -13.76 0
v -6.08 -13.76 0
v -6.4 -14.08 0
v -6.72 -14.08 0
v -6.72 -13.76 0
v -6.4 -13.76 0
v -5.12 -14.4 0
v -5.44 -14.4 0
v -5.44 -14.08 0
v -5.12 -14.08 0
v -5.44 -14.4 0
v -5.76 -14.4 0
v -5.76 -14.08 0
v -5.44 -14.08 0
v -6.08 -14.4 0
v -6.4 -14.4 0
v -6.4 -14.08 0
v -6.08 -14.08 0
v -6.4 -14.4 0
v -6.72 -14.4 0
v -6.72 -14.08 0
v -6.4 -14.08 0
v -5.12 -14.72 0
v -5.44 -14.72 0
v -5.44 -14.4 0
v -5.12 -14.4 0
v -5.44 -14.72 0
v -5.76 -14.72 0
v -5.76 -14.4 0
v -5.44 -14.4 0
v -6.08 -14.72 0
v -6.4 -14.72 0
v -6.4 -14.4 0
v -6.08 -14.4 0
v -6.4 -14.72 0
v -6.72 -14.72 0
v -6.72 -14.4 0
v -6.4 -14.4 0
v -6.08 -15.04 0
v -6.4 -15.04 0
v -6.4 -14.72 0
v -6.08 -14.72 0
v -6.4 -15.04 0
v -6.72 -15.04 0
v -6.72 -14.72 0
v -6.4 -14.72 0
v -3.52 -15.36 0
v -3.84 -15.36 0
v -3.84 -15.04 0
v -3.52 -15.04 0
v -3.84 -15.36 0
v -4.16 -15.36 0
v -4.16 -15.04 0
v -3.84 -15.04 0
v -3.52 -15.68 0
v -3.84 -15.68 0
v -3.84 -15.36 0
v -3.52 -15.36 0
v -3.84 -15.68 0
v -4.16 -15.68 0
v -4.16 -15.36 0
v -3.84 -15.36 0
v -3.52 -16 0
v -3.84 -16 0
v -3.84 -15.68 0
v -3.52 -15.68 0
v -3.84 -16 0
v -4.16 -16 0
v -4.16 -15.68 0
v -3.84 -15.68 0
v -1.28 -16.32 0
v -1.6 -16.32 0
v -1.6 -16 0
v -1.28 -16 0
v -1.6 -16.32 0
v -1.92 -16.32 0
v -1.92 -16 0
v -1.6 -16 0
v -3.52 -16.32 0
v -3.84 -16.32 0
v -3.84 -16 0
v -3.52 -16 0
v -3.84 -16.32 0
v -4.16 -16.32 0
v -4.16 -16 0
v -3.84 -16 0
v -1.28 -16.64 0
v -1.6 -16.64 0
v -1.6 -16.32 0
v -1.28 -16.32 0
v -1.6 -16.64 0
v -1.92 -16.64 0
v -1.92 -16.32 0
v -1.6 -16.32 0
v -1.28 -16.96 0
v -1.6 -16.96 0
v -1.6 -16.64 0
v -1.28 -16.64 0
v -1.6 -16.96 0
v -1.92 -16.96 0
v -1.92 -16.64 0
v -1.6 -16.64 0
v -1.28 -17.28 0
v -1.6 -17.28 0
v -1.6 -16.96 0
v -1.28 -16.96 0
v -1.6 -17.28 0
v -1.92 -17.28 0
v -1.92 -16.96 0
v -1.6 -16.96 0

# Texture cooridinates (Count = 32)
vt 0.0001220703 0.6001221
vt 0.04198319 0.6001221
vt 0.04198319 0.6332113
vt 0.0001220703 0.6332113
vt 0.04222734 0.6001221
vt 0.08408846 0.6001221
vt 0.08408846 0.6332113
vt 0.04222734 0.6332113
vt 0.0001220703 0.5667887
vt 0.04198319 0.5667887
vt 0.04198319 0.599878
vt 0.0001220703 0.599878
vt 0.04222734 0.5667887
vt 0.08408846 0.5667887
vt 0.08408846 0.599878
vt 0.04222734 0.599878
vt 0.0001220703 0.5334554
vt 0.04198319 0.5334554
vt 0.04198319 0.5665446
vt 0.0001220703 0.5665446
vt 0.04222734 0.5334554
vt 0.08408846 0.5334554
vt 0.08408846 0.5665446
vt 0.04222734 0.5665446
vt 0.0001220703 0.5001221
vt 0.04198319 0.5001221
vt 0.04198319 0.5332112
vt 0.0001220703 0.5332112
vt 0.04222734 0.5001221
vt 0.08408846 0.5001221
vt 0.08408846 0.5332112
vt 0.04222734 0.5332112

# Normal
vn 0 0 -1

# Mesh description
g test-for-tile-sets_mesh_0005

# Faces
f 1/1/1 2/2/1 3/3/1 4/4/1
f 5/5/1 6/6/1 7/7/1 8/8/1
f 9/9/1 10/10/1 11/11/1 12/12/1
f 13/13/1 14/14/1 15/15/1 16/16/1
f 17/1/1 18/2/1 19/3/1 20/4/1
f 21/5/1 22/6/1 23/7/1 24/8/1
f 25/17/1 26/18/1 27/19/1 28/20/1
f 29/21/1 30/22/1 31/23/1 32/24/1
f 33/9/1 34/10/1 35/11/1 36/12/1
f 37/13/1 38/14/1 39/15/1 40/16/1
f 41/25/1 42/26/1 43/27/1 44/28/1
f 45/29/1 46/30/1 47/31/1 48/32/1
f 49/1/1 50/2/1 51/3/1 52/4/1
f 53/5/1 54/6/1 55/7/1 56/8/1
f 57/17/1 58/18/1 59/19/1 60/20/1
f 61/21/1 62/22/1 63/23/1 64/24/1
f 65/1/1 66/2/1 67/3/1 68/4/1
f 69/5/1 70/6/1 71/7/1 72/8/1
f 73/9/1 74/10/1 75/11/1 76/12/1
f 77/13/1 78/14/1 79/15/1 80/16/1
f 81/25/1 82/26/1 83/27/1 84/28/1
f 85/29/1 86/30/1 87/31/1 88/32/1
f 89/9/1 90/10/1 91/11/1 92/12/1
f 93/13/1 94/14/1 95/15/1 96/16/1
f 97/17/1 98/18/1 99/19/1 100/20/1
f 101/21/1 102/22/1 103/23/1 104/24/1
f 105/17/1 106/18/1 107/19/1 108/20/1
f 109/21/1 110/22/1 111/23/1 112/24/1
f 113/25/1 114/26/1 115/27/1 116/28/1
f 117/29/1 118/30/1 119/31/1 120/32/1
f 121/1/1 122/2/1 123/3/1 124/4/1
f 125/5/1 126/6/1 127/7/1 128/8/1
f 129/25/1 130/26/1 131/27/1 132/28/1
f 133/29/1 134/30/1 135/31/1 136/32/1
f 137/9/1 138/10/1 139/11/1 140/12/1
f 141/13/1 142/14/1 143/15/1 144/16/1
f 145/1/1 146/2/1 147/3/1 148/4/1
f 149/5/1 150/6/1 151/7/1 152/8/1
f 153/17/1 154/18/1 155/19/1 156/20/1
f 157/21/1 158/22/1 159/23/1 160/24/1
f 161/9/1 162/10/1 163/11/1 164/12/1
f 165/13/1 166/14/1 167/15/1 168/16/1
f 169/25/1 170/26/1 171/27/1 172/28/1
f 173/29/1 174/30/1 175/31/1 176/32/1
f 177/17/1 178/18/1 179/19/1 180/20/1
f 181/21/1 182/22/1 183/23/1 184/24/1
f 185/1/1 186/2/1 187/3/1 188/4/1
f 189/5/1 190/6/1 191/7/1 192/8/1
f 193/25/1 194/26/1 195/27/1 196/28/1
f 197/29/1 198/30/1 199/31/1 200/32/1
f 201/9/1 202/10/1 203/11/1 204/12/1
f 205/13/1 206/14/1 207/15/1 208/16/1
f 209/1/1 210/2/1 211/3/1 212/4/1
f 213/5/1 214/6/1 215/7/1 216/8/1
f 217/17/1 218/18/1 219/19/1 220/20/1
f 221/21/1 222/22/1 223/23/1 224/24/1
f 225/9/1 226/10/1 227/11/1 228/12/1
f 229/13/1 230/14/1 231/15/1 232/16/1
f 233/25/1 234/26/1 235/27/1 236/28/1
f 237/29/1 238/30/1 239/31/1 240/32/1
f 241/17/1 242/18/1 243/19/1 244/20/1
f 245/21/1 246/22/1 247/23/1 248/24/1
f 249/25/1 250/26/1 251/27/1 252/28/1
f 253/29/1 254/30/1 255/31/1 256/32/1
f 257/1/1 258/2/1 259/3/1 260/4/1
f 261/5/1 262/6/1 263/7/1 264/8/1
f 265/9/1 266/10/1 267/11/1 268/12/1
f 269/13/1 270/14/1 271/15/1 272/16/1
f 273/17/1 274/18/1 275/19/1 276/20/1
f 277/21/1 278/22/1 279/23/1 280/24/1
f 281/1/1 282/2/1 283/3/1 284/4/1
f 285/5/1 286/6/1 287/7/1 288/8/1
f 289/25/1 290/26/1 291/27/1 292/28/1
f 293/29/1 294/30/1 295/31/1 296/32/1
f 297/9/1 298/10/1 299/11/1 300/12/1
f 301/13/1 302/14/1 303/15/1 304/16/1
f 305/17/1 306/18/1 307/19/1 308/20/1
f 309/21/1 310/22/1 311/23/1 312/24/1
f 313/25/1 314/26/1 315/27/1 316/28/1
f 317/29/1 318/30/1 319/31/1 320/32/1

