# Tiled2Unity generated file. Do not modify by hand.
# Wavefront file for 'test-for-tile-sets_mesh_0013.obj'

# Vertices (Count = 692)
v -15.68 -2.56 0
v -16 -2.56 0
v -16 -2.24 0
v -15.68 -2.24 0
v -16 -2.56 0
v -16.32 -2.56 0
v -16.32 -2.24 0
v -16 -2.24 0
v -17.6 -2.56 0
v -17.92 -2.56 0
v -17.92 -2.24 0
v -17.6 -2.24 0
v -17.92 -2.56 0
v -18.24 -2.56 0
v -18.24 -2.24 0
v -17.92 -2.24 0
v -15.36 -2.88 0
v -15.68 -2.88 0
v -15.68 -2.56 0
v -15.36 -2.56 0
v -15.68 -2.88 0
v -16 -2.88 0
v -16 -2.56 0
v -15.68 -2.56 0
v -16 -2.88 0
v -16.32 -2.88 0
v -16.32 -2.56 0
v -16 -2.56 0
v -16.32 -2.88 0
v -16.64 -2.88 0
v -16.64 -2.56 0
v -16.32 -2.56 0
v -17.28 -2.88 0
v -17.6 -2.88 0
v -17.6 -2.56 0
v -17.28 -2.56 0
v -17.6 -2.88 0
v -17.92 -2.88 0
v -17.92 -2.56 0
v -17.6 -2.56 0
v -17.92 -2.88 0
v -18.24 -2.88 0
v -18.24 -2.56 0
v -17.92 -2.56 0
v -18.24 -2.88 0
v -18.56 -2.88 0
v -18.56 -2.56 0
v -18.24 -2.56 0
v -15.36 -3.2 0
v -15.68 -3.2 0
v -15.68 -2.88 0
v -15.36 -2.88 0
v -15.68 -3.2 0
v -16 -3.2 0
v -16 -2.88 0
v -15.68 -2.88 0
v -16 -3.2 0
v -16.32 -3.2 0
v -16.32 -2.88 0
v -16 -2.88 0
v -16.32 -3.2 0
v -16.64 -3.2 0
v -16.64 -2.88 0
v -16.32 -2.88 0
v -17.28 -3.2 0
v -17.6 -3.2 0
v -17.6 -2.88 0
v -17.28 -2.88 0
v -17.6 -3.2 0
v -17.92 -3.2 0
v -17.92 -2.88 0
v -17.6 -2.88 0
v -17.92 -3.2 0
v -18.24 -3.2 0
v -18.24 -2.88 0
v -17.92 -2.88 0
v -18.24 -3.2 0
v -18.56 -3.2 0
v -18.56 -2.88 0
v -18.24 -2.88 0
v -18.56 -3.2 0
v -18.88 -3.2 0
v -18.88 -2.88 0
v -18.56 -2.88 0
v -18.88 -3.2 0
v -19.2 -3.2 0
v -19.2 -2.88 0
v -18.88 -2.88 0
v -14.08 -3.52 0
v -14.4 -3.52 0
v -14.4 -3.2 0
v -14.08 -3.2 0
v -14.4 -3.52 0
v -14.72 -3.52 0
v -14.72 -3.2 0
v -14.4 -3.2 0
v -14.72 -3.52 0
v -15.04 -3.52 0
v -15.04 -3.2 0
v -14.72 -3.2 0
v -15.36 -3.52 0
v -15.68 -3.52 0
v -15.68 -3.2 0
v -15.36 -3.2 0
v -15.68 -3.52 0
v -16 -3.52 0
v -16 -3.2 0
v -15.68 -3.2 0
v -16 -3.52 0
v -16.32 -3.52 0
v -16.32 -3.2 0
v -16 -3.2 0
v -16.32 -3.52 0
v -16.64 -3.52 0
v -16.64 -3.2 0
v -16.32 -3.2 0
v -17.28 -3.52 0
v -17.6 -3.52 0
v -17.6 -3.2 0
v -17.28 -3.2 0
v -17.6 -3.52 0
v -17.92 -3.52 0
v -17.92 -3.2 0
v -17.6 -3.2 0
v -17.92 -3.52 0
v -18.24 -3.52 0
v -18.24 -3.2 0
v -17.92 -3.2 0
v -18.24 -3.52 0
v -18.56 -3.52 0
v -18.56 -3.2 0
v -18.24 -3.2 0
v -18.56 -3.52 0
v -18.88 -3.52 0
v -18.88 -3.2 0
v -18.56 -3.2 0
v -18.88 -3.52 0
v -19.2 -3.52 0
v -19.2 -3.2 0
v -18.88 -3.2 0
v -19.2 -3.52 0
v -19.52 -3.52 0
v -19.52 -3.2 0
v -19.2 -3.2 0
v -19.52 -3.52 0
v -19.84 -3.52 0
v -19.84 -3.2 0
v -19.52 -3.2 0
v -21.12 -3.52 0
v -21.44 -3.52 0
v -21.44 -3.2 0
v -21.12 -3.2 0
v -21.44 -3.52 0
v -21.76 -3.52 0
v -21.76 -3.2 0
v -21.44 -3.2 0
v -14.08 -3.84 0
v -14.4 -3.84 0
v -14.4 -3.52 0
v -14.08 -3.52 0
v -14.4 -3.84 0
v -14.72 -3.84 0
v -14.72 -3.52 0
v -14.4 -3.52 0
v -14.72 -3.84 0
v -15.04 -3.84 0
v -15.04 -3.52 0
v -14.72 -3.52 0
v -15.04 -3.84 0
v -15.36 -3.84 0
v -15.36 -3.52 0
v -15.04 -3.52 0
v -15.36 -3.84 0
v -15.68 -3.84 0
v -15.68 -3.52 0
v -15.36 -3.52 0
v -15.68 -3.84 0
v -16 -3.84 0
v -16 -3.52 0
v -15.68 -3.52 0
v -16 -3.84 0
v -16.32 -3.84 0
v -16.32 -3.52 0
v -16 -3.52 0
v -16.32 -3.84 0
v -16.64 -3.84 0
v -16.64 -3.52 0
v -16.32 -3.52 0
v -16.96 -3.84 0
v -17.28 -3.84 0
v -17.28 -3.52 0
v -16.96 -3.52 0
v -17.28 -3.84 0
v -17.6 -3.84 0
v -17.6 -3.52 0
v -17.28 -3.52 0
v -17.6 -3.84 0
v -17.92 -3.84 0
v -17.92 -3.52 0
v -17.6 -3.52 0
v -17.92 -3.84 0
v -18.24 -3.84 0
v -18.24 -3.52 0
v -17.92 -3.52 0
v -18.24 -3.84 0
v -18.56 -3.84 0
v -18.56 -3.52 0
v -18.24 -3.52 0
v -18.88 -3.84 0
v -19.2 -3.84 0
v -19.2 -3.52 0
v -18.88 -3.52 0
v -19.2 -3.84 0
v -19.52 -3.84 0
v -19.52 -3.52 0
v -19.2 -3.52 0
v -19.52 -3.84 0
v -19.84 -3.84 0
v -19.84 -3.52 0
v -19.52 -3.52 0
v -19.84 -3.84 0
v -20.16 -3.84 0
v -20.16 -3.52 0
v -19.84 -3.52 0
v -20.8 -3.84 0
v -21.12 -3.84 0
v -21.12 -3.52 0
v -20.8 -3.52 0
v -21.12 -3.84 0
v -21.44 -3.84 0
v -21.44 -3.52 0
v -21.12 -3.52 0
v -21.44 -3.84 0
v -21.76 -3.84 0
v -21.76 -3.52 0
v -21.44 -3.52 0
v -21.76 -3.84 0
v -22.08 -3.84 0
v -22.08 -3.52 0
v -21.76 -3.52 0
v -14.08 -4.16 0
v -14.4 -4.16 0
v -14.4 -3.84 0
v -14.08 -3.84 0
v -14.4 -4.16 0
v -14.72 -4.16 0
v -14.72 -3.84 0
v -14.4 -3.84 0
v -14.72 -4.16 0
v -15.04 -4.16 0
v -15.04 -3.84 0
v -14.72 -3.84 0
v -17.6 -4.16 0
v -17.92 -4.16 0
v -17.92 -3.84 0
v -17.6 -3.84 0
v -18.88 -4.16 0
v -19.2 -4.16 0
v -19.2 -3.84 0
v -18.88 -3.84 0
v -19.2 -4.16 0
v -19.52 -4.16 0
v -19.52 -3.84 0
v -19.2 -3.84 0
v -19.52 -4.16 0
v -19.84 -4.16 0
v -19.84 -3.84 0
v -19.52 -3.84 0
v -19.84 -4.16 0
v -20.16 -4.16 0
v -20.16 -3.84 0
v -19.84 -3.84 0
v -20.8 -4.16 0
v -21.12 -4.16 0
v -21.12 -3.84 0
v -20.8 -3.84 0
v -21.12 -4.16 0
v -21.44 -4.16 0
v -21.44 -3.84 0
v -21.12 -3.84 0
v -21.44 -4.16 0
v -21.76 -4.16 0
v -21.76 -3.84 0
v -21.44 -3.84 0
v -21.76 -4.16 0
v -22.08 -4.16 0
v -22.08 -3.84 0
v -21.76 -3.84 0
v -14.08 -4.48 0
v -14.4 -4.48 0
v -14.4 -4.16 0
v -14.08 -4.16 0
v -14.4 -4.48 0
v -14.72 -4.48 0
v -14.72 -4.16 0
v -14.4 -4.16 0
v -18.88 -4.48 0
v -19.2 -4.48 0
v -19.2 -4.16 0
v -18.88 -4.16 0
v -19.2 -4.48 0
v -19.52 -4.48 0
v -19.52 -4.16 0
v -19.2 -4.16 0
v -19.52 -4.48 0
v -19.84 -4.48 0
v -19.84 -4.16 0
v -19.52 -4.16 0
v -19.84 -4.48 0
v -20.16 -4.48 0
v -20.16 -4.16 0
v -19.84 -4.16 0
v -20.8 -4.48 0
v -21.12 -4.48 0
v -21.12 -4.16 0
v -20.8 -4.16 0
v -21.12 -4.48 0
v -21.44 -4.48 0
v -21.44 -4.16 0
v -21.12 -4.16 0
v -21.44 -4.48 0
v -21.76 -4.48 0
v -21.76 -4.16 0
v -21.44 -4.16 0
v -21.76 -4.48 0
v -22.08 -4.48 0
v -22.08 -4.16 0
v -21.76 -4.16 0
v -14.08 -4.8 0
v -14.4 -4.8 0
v -14.4 -4.48 0
v -14.08 -4.48 0
v -14.4 -4.8 0
v -14.72 -4.8 0
v -14.72 -4.48 0
v -14.4 -4.48 0
v -16.32 -4.8 0
v -16.64 -4.8 0
v -16.64 -4.48 0
v -16.32 -4.48 0
v -16.64 -4.8 0
v -16.96 -4.8 0
v -16.96 -4.48 0
v -16.64 -4.48 0
v -18.88 -4.8 0
v -19.2 -4.8 0
v -19.2 -4.48 0
v -18.88 -4.48 0
v -19.2 -4.8 0
v -19.52 -4.8 0
v -19.52 -4.48 0
v -19.2 -4.48 0
v -19.52 -4.8 0
v -19.84 -4.8 0
v -19.84 -4.48 0
v -19.52 -4.48 0
v -19.84 -4.8 0
v -20.16 -4.8 0
v -20.16 -4.48 0
v -19.84 -4.48 0
v -20.8 -4.8 0
v -21.12 -4.8 0
v -21.12 -4.48 0
v -20.8 -4.48 0
v -21.12 -4.8 0
v -21.44 -4.8 0
v -21.44 -4.48 0
v -21.12 -4.48 0
v -21.44 -4.8 0
v -21.76 -4.8 0
v -21.76 -4.48 0
v -21.44 -4.48 0
v -21.76 -4.8 0
v -22.08 -4.8 0
v -22.08 -4.48 0
v -21.76 -4.48 0
v -22.08 -4.8 0
v -22.4 -4.8 0
v -22.4 -4.48 0
v -22.08 -4.48 0
v -22.4 -4.8 0
v -22.72 -4.8 0
v -22.72 -4.48 0
v -22.4 -4.48 0
v -13.12 -5.12 0
v -13.44 -5.12 0
v -13.44 -4.8 0
v -13.12 -4.8 0
v -14.08 -5.12 0
v -14.4 -5.12 0
v -14.4 -4.8 0
v -14.08 -4.8 0
v -16.32 -5.12 0
v -16.64 -5.12 0
v -16.64 -4.8 0
v -16.32 -4.8 0
v -16.64 -5.12 0
v -16.96 -5.12 0
v -16.96 -4.8 0
v -16.64 -4.8 0
v -21.44 -5.12 0
v -21.76 -5.12 0
v -21.76 -4.8 0
v -21.44 -4.8 0
v -22.08 -5.12 0
v -22.4 -5.12 0
v -22.4 -4.8 0
v -22.08 -4.8 0
v -22.4 -5.12 0
v -22.72 -5.12 0
v -22.72 -4.8 0
v -22.4 -4.8 0
v -20.16 -5.76 0
v -20.48 -5.76 0
v -20.48 -5.44 0
v -20.16 -5.44 0
v -20.48 -5.76 0
v -20.8 -5.76 0
v -20.8 -5.44 0
v -20.48 -5.44 0
v -21.76 -5.76 0
v -22.08 -5.76 0
v -22.08 -5.44 0
v -21.76 -5.44 0
v -22.08 -5.76 0
v -22.4 -5.76 0
v -22.4 -5.44 0
v -22.08 -5.44 0
v -19.84 -6.08 0
v -20.16 -6.08 0
v -20.16 -5.76 0
v -19.84 -5.76 0
v -20.16 -6.08 0
v -20.48 -6.08 0
v -20.48 -5.76 0
v -20.16 -5.76 0
v -20.48 -6.08 0
v -20.8 -6.08 0
v -20.8 -5.76 0
v -20.48 -5.76 0
v -21.76 -6.08 0
v -22.08 -6.08 0
v -22.08 -5.76 0
v -21.76 -5.76 0
v -22.08 -6.08 0
v -22.4 -6.08 0
v -22.4 -5.76 0
v -22.08 -5.76 0
v -8.32 -6.4 0
v -8.639999 -6.4 0
v -8.639999 -6.08 0
v -8.32 -6.08 0
v -20.16 -6.4 0
v -20.48 -6.4 0
v -20.48 -6.08 0
v -20.16 -6.08 0
v -21.44 -6.4 0
v -21.76 -6.4 0
v -21.76 -6.08 0
v -21.44 -6.08 0
v -8.639999 -6.72 0
v -8.96 -6.72 0
v -8.96 -6.4 0
v -8.639999 -6.4 0
v -15.36 -6.72 0
v -15.68 -6.72 0
v -15.68 -6.4 0
v -15.36 -6.4 0
v -21.76 -6.72 0
v -22.08 -6.72 0
v -22.08 -6.4 0
v -21.76 -6.4 0
v -22.08 -6.72 0
v -22.4 -6.72 0
v -22.4 -6.4 0
v -22.08 -6.4 0
v -22.4 -6.72 0
v -22.72 -6.72 0
v -22.72 -6.4 0
v -22.4 -6.4 0
v -22.72 -6.72 0
v -23.04 -6.72 0
v -23.04 -6.4 0
v -22.72 -6.4 0
v -21.76 -7.04 0
v -22.08 -7.04 0
v -22.08 -6.72 0
v -21.76 -6.72 0
v -22.08 -7.04 0
v -22.4 -7.04 0
v -22.4 -6.72 0
v -22.08 -6.72 0
v -22.4 -7.04 0
v -22.72 -7.04 0
v -22.72 -6.72 0
v -22.4 -6.72 0
v -22.72 -7.04 0
v -23.04 -7.04 0
v -23.04 -6.72 0
v -22.72 -6.72 0
v -13.44 -7.36 0
v -13.76 -7.36 0
v -13.76 -7.04 0
v -13.44 -7.04 0
v -16.64 -7.36 0
v -16.96 -7.36 0
v -16.96 -7.04 0
v -16.64 -7.04 0
v -16.96 -7.36 0
v -17.28 -7.36 0
v -17.28 -7.04 0
v -16.96 -7.04 0
v -17.92 -7.36 0
v -18.24 -7.36 0
v -18.24 -7.04 0
v -17.92 -7.04 0
v -18.56 -7.36 0
v -18.88 -7.36 0
v -18.88 -7.04 0
v -18.56 -7.04 0
v -18.88 -7.36 0
v -19.2 -7.36 0
v -19.2 -7.04 0
v -18.88 -7.04 0
v -21.44 -7.36 0
v -21.76 -7.36 0
v -21.76 -7.04 0
v -21.44 -7.04 0
v -16.64 -7.68 0
v -16.96 -7.68 0
v -16.96 -7.36 0
v -16.64 -7.36 0
v -16.96 -7.68 0
v -17.28 -7.68 0
v -17.28 -7.36 0
v -16.96 -7.36 0
v -18.24 -7.68 0
v -18.56 -7.68 0
v -18.56 -7.36 0
v -18.24 -7.36 0
v -18.56 -7.68 0
v -18.88 -7.68 0
v -18.88 -7.36 0
v -18.56 -7.36 0
v -18.88 -7.68 0
v -19.2 -7.68 0
v -19.2 -7.36 0
v -18.88 -7.36 0
v -19.2 -7.68 0
v -19.52 -7.68 0
v -19.52 -7.36 0
v -19.2 -7.36 0
v -19.52 -7.68 0
v -19.84 -7.68 0
v -19.84 -7.36 0
v -19.52 -7.36 0
v -18.56 -8 0
v -18.88 -8 0
v -18.88 -7.68 0
v -18.56 -7.68 0
v -18.88 -8 0
v -19.2 -8 0
v -19.2 -7.68 0
v -18.88 -7.68 0
v -19.2 -8 0
v -19.52 -8 0
v -19.52 -7.68 0
v -19.2 -7.68 0
v -19.52 -8 0
v -19.84 -8 0
v -19.84 -7.68 0
v -19.52 -7.68 0
v -18.56 -8.32 0
v -18.88 -8.32 0
v -18.88 -8 0
v -18.56 -8 0
v -18.88 -8.32 0
v -19.2 -8.32 0
v -19.2 -8 0
v -18.88 -8 0
v -16.96 -8.96 0
v -17.28 -8.96 0
v -17.28 -8.639999 0
v -16.96 -8.639999 0
v -13.76 -9.28 0
v -14.08 -9.28 0
v -14.08 -8.96 0
v -13.76 -8.96 0
v -19.2 -9.599999 0
v -19.52 -9.599999 0
v -19.52 -9.28 0
v -19.2 -9.28 0
v -16.32 -10.24 0
v -16.64 -10.24 0
v -16.64 -9.92 0
v -16.32 -9.92 0
v -7.04 -17.28 0
v -7.36 -17.28 0
v -7.36 -16.96 0
v -7.04 -16.96 0
v -6.72 -17.6 0
v -7.04 -17.6 0
v -7.04 -17.28 0
v -6.72 -17.28 0
v -7.04 -17.6 0
v -7.36 -17.6 0
v -7.36 -17.28 0
v -7.04 -17.28 0
v -7.68 -17.6 0
v -8 -17.6 0
v -8 -17.28 0
v -7.68 -17.28 0
v -21.76 -17.6 0
v -22.08 -17.6 0
v -22.08 -17.28 0
v -21.76 -17.28 0
v -6.72 -17.92 0
v -7.04 -17.92 0
v -7.04 -17.6 0
v -6.72 -17.6 0
v -7.68 -17.92 0
v -8 -17.92 0
v -8 -17.6 0
v -7.68 -17.6 0
v -21.44 -17.92 0
v -21.76 -17.92 0
v -21.76 -17.6 0
v -21.44 -17.6 0
v -21.76 -17.92 0
v -22.08 -17.92 0
v -22.08 -17.6 0
v -21.76 -17.6 0
v -21.44 -18.24 0
v -21.76 -18.24 0
v -21.76 -17.92 0
v -21.44 -17.92 0
v -21.76 -18.24 0
v -22.08 -18.24 0
v -22.08 -17.92 0
v -21.76 -17.92 0
v -6.72 -18.56 0
v -7.04 -18.56 0
v -7.04 -18.24 0
v -6.72 -18.24 0
v -7.68 -18.56 0
v -8 -18.56 0
v -8 -18.24 0
v -7.68 -18.24 0
v -6.72 -18.88 0
v -7.04 -18.88 0
v -7.04 -18.56 0
v -6.72 -18.56 0
v -7.68 -18.88 0
v -8 -18.88 0
v -8 -18.56 0
v -7.68 -18.56 0
v -13.44 -19.52 0
v -13.76 -19.52 0
v -13.76 -19.2 0
v -13.44 -19.2 0
v -13.44 -19.84 0
v -13.76 -19.84 0
v -13.76 -19.52 0
v -13.44 -19.52 0
v -22.08 -25.92 0
v -22.4 -25.92 0
v -22.4 -25.6 0
v -22.08 -25.6 0
v -21.76 -26.24 0
v -22.08 -26.24 0
v -22.08 -25.92 0
v -21.76 -25.92 0
v -22.08 -26.24 0
v -22.4 -26.24 0
v -22.4 -25.92 0
v -22.08 -25.92 0
v -22.4 -26.56 0
v -22.72 -26.56 0
v -22.72 -26.24 0
v -22.4 -26.24 0
v -23.68 -28.48 0
v -24 -28.48 0
v -24 -28.16 0
v -23.68 -28.16 0
v -27.52 -28.48 0
v -27.84 -28.48 0
v -27.84 -28.16 0
v -27.52 -28.16 0
v -27.84 -28.8 0
v -28.16 -28.8 0
v -28.16 -28.48 0
v -27.84 -28.48 0

# Texture cooridinates (Count = 256)
vt 0.1001221 0.900122
vt 0.1998779 0.900122
vt 0.1998779 0.9998779
vt 0.1001221 0.9998779
vt 0.2001221 0.900122
vt 0.2998779 0.900122
vt 0.2998779 0.9998779
vt 0.2001221 0.9998779
vt 0.0001220703 0.8001221
vt 0.09987793 0.8001221
vt 0.09987793 0.8998779
vt 0.0001220703 0.8998779
vt 0.1001221 0.8001221
vt 0.1998779 0.8001221
vt 0.1998779 0.8998779
vt 0.1001221 0.8998779
vt 0.2001221 0.8001221
vt 0.2998779 0.8001221
vt 0.2998779 0.8998779
vt 0.2001221 0.8998779
vt 0.3001221 0.8001221
vt 0.3998779 0.8001221
vt 0.3998779 0.8998779
vt 0.3001221 0.8998779
vt 0.0001220703 0.7001221
vt 0.09987793 0.7001221
vt 0.09987793 0.7998779
vt 0.0001220703 0.7998779
vt 0.1001221 0.7001221
vt 0.1998779 0.7001221
vt 0.1998779 0.7998779
vt 0.1001221 0.7998779
vt 0.2001221 0.7001221
vt 0.2998779 0.7001221
vt 0.2998779 0.7998779
vt 0.2001221 0.7998779
vt 0.3001221 0.7001221
vt 0.3998779 0.7001221
vt 0.3998779 0.7998779
vt 0.3001221 0.7998779
vt 0.5001221 0.900122
vt 0.599878 0.900122
vt 0.599878 0.9998779
vt 0.5001221 0.9998779
vt 0.6001221 0.900122
vt 0.6998779 0.900122
vt 0.6998779 0.9998779
vt 0.6001221 0.9998779
vt 0.7001221 0.900122
vt 0.7998779 0.900122
vt 0.7998779 0.9998779
vt 0.7001221 0.9998779
vt 0.8001221 0.900122
vt 0.8998779 0.900122
vt 0.8998779 0.9998779
vt 0.8001221 0.9998779
vt 0.900122 0.900122
vt 0.9998779 0.900122
vt 0.9998779 0.9998779
vt 0.900122 0.9998779
vt 0.0001220703 0.6001221
vt 0.09987793 0.6001221
vt 0.09987793 0.6998779
vt 0.0001220703 0.6998779
vt 0.1001221 0.6001221
vt 0.1998779 0.6001221
vt 0.1998779 0.6998779
vt 0.1001221 0.6998779
vt 0.2001221 0.6001221
vt 0.2998779 0.6001221
vt 0.2998779 0.6998779
vt 0.2001221 0.6998779
vt 0.3001221 0.6001221
vt 0.3998779 0.6001221
vt 0.3998779 0.6998779
vt 0.3001221 0.6998779
vt 0.5001221 0.8001221
vt 0.599878 0.8001221
vt 0.599878 0.8998779
vt 0.5001221 0.8998779
vt 0.6001221 0.8001221
vt 0.6998779 0.8001221
vt 0.6998779 0.8998779
vt 0.6001221 0.8998779
vt 0.7001221 0.8001221
vt 0.7998779 0.8001221
vt 0.7998779 0.8998779
vt 0.7001221 0.8998779
vt 0.8001221 0.8001221
vt 0.8998779 0.8001221
vt 0.8998779 0.8998779
vt 0.8001221 0.8998779
vt 0.900122 0.8001221
vt 0.9998779 0.8001221
vt 0.9998779 0.8998779
vt 0.900122 0.8998779
vt 0.900122 0.7001221
vt 0.9998779 0.7001221
vt 0.9998779 0.7998779
vt 0.900122 0.7998779
vt 0.0001220703 0.5001221
vt 0.09987793 0.5001221
vt 0.09987793 0.599878
vt 0.0001220703 0.599878
vt 0.1001221 0.5001221
vt 0.1998779 0.5001221
vt 0.1998779 0.599878
vt 0.1001221 0.599878
vt 0.2001221 0.5001221
vt 0.2998779 0.5001221
vt 0.2998779 0.599878
vt 0.2001221 0.599878
vt 0.3001221 0.5001221
vt 0.3998779 0.5001221
vt 0.3998779 0.599878
vt 0.3001221 0.599878
vt 0.4001221 0.8001221
vt 0.4998779 0.8001221
vt 0.4998779 0.8998779
vt 0.4001221 0.8998779
vt 0.4001221 0.7001221
vt 0.4998779 0.7001221
vt 0.4998779 0.7998779
vt 0.4001221 0.7998779
vt 0.5001221 0.7001221
vt 0.599878 0.7001221
vt 0.599878 0.7998779
vt 0.5001221 0.7998779
vt 0.7001221 0.7001221
vt 0.7998779 0.7001221
vt 0.7998779 0.7998779
vt 0.7001221 0.7998779
vt 0.3001221 0.900122
vt 0.3998779 0.900122
vt 0.3998779 0.9998779
vt 0.3001221 0.9998779
vt 0.4001221 0.6001221
vt 0.4998779 0.6001221
vt 0.4998779 0.6998779
vt 0.4001221 0.6998779
vt 0.5001221 0.6001221
vt 0.599878 0.6001221
vt 0.599878 0.6998779
vt 0.5001221 0.6998779
vt 0.3001221 0.400122
vt 0.3998779 0.400122
vt 0.3998779 0.4998779
vt 0.3001221 0.4998779
vt 0.4001221 0.400122
vt 0.4998779 0.400122
vt 0.4998779 0.4998779
vt 0.4001221 0.4998779
vt 0.0001220703 0.0001220703
vt 0.09987793 0.0001220703
vt 0.09987793 0.09987795
vt 0.0001220703 0.09987795
vt 0.3001221 0.3001221
vt 0.3998779 0.3001221
vt 0.3998779 0.3998779
vt 0.3001221 0.3998779
vt 0.4001221 0.3001221
vt 0.4998779 0.3001221
vt 0.4998779 0.3998779
vt 0.4001221 0.3998779
vt 0.6001221 0.7001221
vt 0.6998779 0.7001221
vt 0.6998779 0.7998779
vt 0.6001221 0.7998779
vt 0.4001221 0.5001221
vt 0.4998779 0.5001221
vt 0.4998779 0.599878
vt 0.4001221 0.599878
vt 0.0001220703 0.900122
vt 0.09987793 0.900122
vt 0.09987793 0.9998779
vt 0.0001220703 0.9998779
vt 0.900122 0.2001221
vt 0.9998779 0.2001221
vt 0.9998779 0.2998779
vt 0.900122 0.2998779
vt 0.8001221 0.2001221
vt 0.8998779 0.2001221
vt 0.8998779 0.2998779
vt 0.8001221 0.2998779
vt 0.7001221 0.0001220703
vt 0.7998779 0.0001220703
vt 0.7998779 0.09987795
vt 0.7001221 0.09987795
vt 0.6001221 0.0001220703
vt 0.6998779 0.0001220703
vt 0.6998779 0.09987795
vt 0.6001221 0.09987795
vt 0.4001221 0.1001221
vt 0.4998779 0.1001221
vt 0.4998779 0.1998779
vt 0.4001221 0.1998779
vt 0.2001221 0.2001221
vt 0.2998779 0.2001221
vt 0.2998779 0.2998779
vt 0.2001221 0.2998779
vt 0.4001221 0.0001220703
vt 0.4998779 0.0001220703
vt 0.4998779 0.09987795
vt 0.4001221 0.09987795
vt 0.2001221 0.1001221
vt 0.2998779 0.1001221
vt 0.2998779 0.1998779
vt 0.2001221 0.1998779
vt 0.4001221 0.2001221
vt 0.4998779 0.2001221
vt 0.4998779 0.2998779
vt 0.4001221 0.2998779
vt 0.1001221 0.3001221
vt 0.1998779 0.3001221
vt 0.1998779 0.3998779
vt 0.1001221 0.3998779
vt 0.0001220703 0.2001221
vt 0.09987793 0.2001221
vt 0.09987793 0.2998779
vt 0.0001220703 0.2998779
vt 0.1001221 0.2001221
vt 0.1998779 0.2001221
vt 0.1998779 0.2998779
vt 0.1001221 0.2998779
vt 0.0001220703 0.400122
vt 0.09987793 0.400122
vt 0.09987793 0.4998779
vt 0.0001220703 0.4998779
vt 0.0001220703 0.1001221
vt 0.09987793 0.1001221
vt 0.09987793 0.1998779
vt 0.0001220703 0.1998779
vt 0.0001220703 0.3001221
vt 0.09987793 0.3001221
vt 0.09987793 0.3998779
vt 0.0001220703 0.3998779
vt 0.1001221 0.1001221
vt 0.1998779 0.1001221
vt 0.1998779 0.1998779
vt 0.1001221 0.1998779
vt 0.2001221 0.400122
vt 0.2998779 0.400122
vt 0.2998779 0.4998779
vt 0.2001221 0.4998779
vt 0.2001221 0.3001221
vt 0.2998779 0.3001221
vt 0.2998779 0.3998779
vt 0.2001221 0.3998779
vt 0.1001221 0.400122
vt 0.1998779 0.400122
vt 0.1998779 0.4998779
vt 0.1001221 0.4998779
vt 0.5001221 0.5001221
vt 0.599878 0.5001221
vt 0.599878 0.599878
vt 0.5001221 0.599878

# Normal
vn 0 0 -1

# Mesh description
g test-for-tile-sets_mesh_0013

# Faces
f 1/1/1 2/2/1 3/3/1 4/4/1
f 5/5/1 6/6/1 7/7/1 8/8/1
f 9/1/1 10/2/1 11/3/1 12/4/1
f 13/5/1 14/6/1 15/7/1 16/8/1
f 17/9/1 18/10/1 19/11/1 20/12/1
f 21/13/1 22/14/1 23/15/1 24/16/1
f 25/17/1 26/18/1 27/19/1 28/20/1
f 29/21/1 30/22/1 31/23/1 32/24/1
f 33/9/1 34/10/1 35/11/1 36/12/1
f 37/13/1 38/14/1 39/15/1 40/16/1
f 41/17/1 42/18/1 43/19/1 44/20/1
f 45/21/1 46/22/1 47/23/1 48/24/1
f 49/25/1 50/26/1 51/27/1 52/28/1
f 53/29/1 54/30/1 55/31/1 56/32/1
f 57/33/1 58/34/1 59/35/1 60/36/1
f 61/37/1 62/38/1 63/39/1 64/40/1
f 65/25/1 66/26/1 67/27/1 68/28/1
f 69/29/1 70/30/1 71/31/1 72/32/1
f 73/33/1 74/34/1 75/35/1 76/36/1
f 77/37/1 78/38/1 79/39/1 80/40/1
f 81/41/1 82/42/1 83/43/1 84/44/1
f 85/45/1 86/46/1 87/47/1 88/48/1
f 89/49/1 90/50/1 91/51/1 92/52/1
f 93/53/1 94/54/1 95/55/1 96/56/1
f 97/57/1 98/58/1 99/59/1 100/60/1
f 101/61/1 102/62/1 103/63/1 104/64/1
f 105/65/1 106/66/1 107/67/1 108/68/1
f 109/69/1 110/70/1 111/71/1 112/72/1
f 113/73/1 114/74/1 115/75/1 116/76/1
f 117/61/1 118/62/1 119/63/1 120/64/1
f 121/65/1 122/66/1 123/67/1 124/68/1
f 125/69/1 126/70/1 127/71/1 128/72/1
f 129/73/1 130/74/1 131/75/1 132/76/1
f 133/77/1 134/78/1 135/79/1 136/80/1
f 137/81/1 138/82/1 139/83/1 140/84/1
f 141/1/1 142/2/1 143/3/1 144/4/1
f 145/5/1 146/6/1 147/7/1 148/8/1
f 149/1/1 150/2/1 151/3/1 152/4/1
f 153/5/1 154/6/1 155/7/1 156/8/1
f 157/85/1 158/86/1 159/87/1 160/88/1
f 161/89/1 162/90/1 163/91/1 164/92/1
f 165/93/1 166/94/1 167/95/1 168/96/1
f 169/97/1 170/98/1 171/99/1 172/100/1
f 173/101/1 174/102/1 175/103/1 176/104/1
f 177/105/1 178/106/1 179/107/1 180/108/1
f 181/109/1 182/110/1 183/111/1 184/112/1
f 185/113/1 186/114/1 187/115/1 188/116/1
f 189/117/1 190/118/1 191/119/1 192/120/1
f 193/101/1 194/102/1 195/103/1 196/104/1
f 197/105/1 198/106/1 199/107/1 200/108/1
f 201/109/1 202/110/1 203/111/1 204/112/1
f 205/113/1 206/114/1 207/115/1 208/116/1
f 209/9/1 210/10/1 211/11/1 212/12/1
f 213/13/1 214/14/1 215/15/1 216/16/1
f 217/17/1 218/18/1 219/19/1 220/20/1
f 221/21/1 222/22/1 223/23/1 224/24/1
f 225/9/1 226/10/1 227/11/1 228/12/1
f 229/13/1 230/14/1 231/15/1 232/16/1
f 233/17/1 234/18/1 235/19/1 236/20/1
f 237/21/1 238/22/1 239/23/1 240/24/1
f 241/121/1 242/122/1 243/123/1 244/124/1
f 245/125/1 246/126/1 247/127/1 248/128/1
f 249/129/1 250/130/1 251/131/1 252/132/1
f 253/133/1 254/134/1 255/135/1 256/136/1
f 257/25/1 258/26/1 259/27/1 260/28/1
f 261/29/1 262/30/1 263/31/1 264/32/1
f 265/33/1 266/34/1 267/35/1 268/36/1
f 269/37/1 270/38/1 271/39/1 272/40/1
f 273/25/1 274/26/1 275/27/1 276/28/1
f 277/29/1 278/30/1 279/31/1 280/32/1
f 281/33/1 282/34/1 283/35/1 284/36/1
f 285/37/1 286/38/1 287/39/1 288/40/1
f 289/137/1 290/138/1 291/139/1 292/140/1
f 293/141/1 294/142/1 295/143/1 296/144/1
f 297/61/1 298/62/1 299/63/1 300/64/1
f 301/65/1 302/66/1 303/67/1 304/68/1
f 305/69/1 306/70/1 307/71/1 308/72/1
f 309/73/1 310/74/1 311/75/1 312/76/1
f 313/61/1 314/62/1 315/63/1 316/64/1
f 317/65/1 318/66/1 319/67/1 320/68/1
f 321/69/1 322/70/1 323/71/1 324/72/1
f 325/73/1 326/74/1 327/75/1 328/76/1
f 329/129/1 330/130/1 331/131/1 332/132/1
f 333/129/1 334/130/1 335/131/1 336/132/1
f 337/145/1 338/146/1 339/147/1 340/148/1
f 341/149/1 342/150/1 343/151/1 344/152/1
f 345/101/1 346/102/1 347/103/1 348/104/1
f 349/105/1 350/106/1 351/107/1 352/108/1
f 353/109/1 354/110/1 355/111/1 356/112/1
f 357/113/1 358/114/1 359/115/1 360/116/1
f 361/101/1 362/102/1 363/103/1 364/104/1
f 365/105/1 366/106/1 367/107/1 368/108/1
f 369/109/1 370/110/1 371/111/1 372/112/1
f 373/113/1 374/114/1 375/115/1 376/116/1
f 377/41/1 378/42/1 379/43/1 380/44/1
f 381/45/1 382/46/1 383/47/1 384/48/1
f 385/153/1 386/154/1 387/155/1 388/156/1
f 389/129/1 390/130/1 391/131/1 392/132/1
f 393/157/1 394/158/1 395/159/1 396/160/1
f 397/161/1 398/162/1 399/163/1 400/164/1
f 401/133/1 402/134/1 403/135/1 404/136/1
f 405/77/1 406/78/1 407/79/1 408/80/1
f 409/81/1 410/82/1 411/83/1 412/84/1
f 413/145/1 414/146/1 415/147/1 416/148/1
f 417/149/1 418/150/1 419/151/1 420/152/1
f 421/121/1 422/122/1 423/123/1 424/124/1
f 425/125/1 426/126/1 427/127/1 428/128/1
f 429/165/1 430/166/1 431/167/1 432/168/1
f 433/157/1 434/158/1 435/159/1 436/160/1
f 437/161/1 438/162/1 439/163/1 440/164/1
f 441/137/1 442/138/1 443/139/1 444/140/1
f 445/141/1 446/142/1 447/143/1 448/144/1
f 449/165/1 450/166/1 451/167/1 452/168/1
f 453/169/1 454/170/1 455/171/1 456/172/1
f 457/173/1 458/174/1 459/175/1 460/176/1
f 461/169/1 462/170/1 463/171/1 464/172/1
f 465/153/1 466/154/1 467/155/1 468/156/1
f 469/129/1 470/130/1 471/131/1 472/132/1
f 473/129/1 474/130/1 475/131/1 476/132/1
f 477/41/1 478/42/1 479/43/1 480/44/1
f 481/45/1 482/46/1 483/47/1 484/48/1
f 485/129/1 486/130/1 487/131/1 488/132/1
f 489/129/1 490/130/1 491/131/1 492/132/1
f 493/77/1 494/78/1 495/79/1 496/80/1
f 497/81/1 498/82/1 499/83/1 500/84/1
f 501/153/1 502/154/1 503/155/1 504/156/1
f 505/177/1 506/178/1 507/179/1 508/180/1
f 509/181/1 510/182/1 511/183/1 512/184/1
f 513/153/1 514/154/1 515/155/1 516/156/1
f 517/177/1 518/178/1 519/179/1 520/180/1
f 521/181/1 522/182/1 523/183/1 524/184/1
f 525/153/1 526/154/1 527/155/1 528/156/1
f 529/185/1 530/186/1 531/187/1 532/188/1
f 533/189/1 534/190/1 535/191/1 536/192/1
f 537/193/1 538/194/1 539/195/1 540/196/1
f 541/185/1 542/186/1 543/187/1 544/188/1
f 545/197/1 546/198/1 547/199/1 548/200/1
f 549/201/1 550/202/1 551/203/1 552/204/1
f 553/181/1 554/182/1 555/183/1 556/184/1
f 557/177/1 558/178/1 559/179/1 560/180/1
f 561/205/1 562/206/1 563/207/1 564/208/1
f 565/209/1 566/210/1 567/211/1 568/212/1
f 569/197/1 570/198/1 571/199/1 572/200/1
f 573/185/1 574/186/1 575/187/1 576/188/1
f 577/189/1 578/190/1 579/191/1 580/192/1
f 581/117/1 582/118/1 583/119/1 584/120/1
f 585/153/1 586/154/1 587/155/1 588/156/1
f 589/153/1 590/154/1 591/155/1 592/156/1
f 593/153/1 594/154/1 595/155/1 596/156/1
f 597/213/1 598/214/1 599/215/1 600/216/1
f 601/217/1 602/218/1 603/219/1 604/220/1
f 605/221/1 606/222/1 607/223/1 608/224/1
f 609/225/1 610/226/1 611/227/1 612/228/1
f 613/213/1 614/214/1 615/215/1 616/216/1
f 617/229/1 618/230/1 619/231/1 620/232/1
f 621/233/1 622/234/1 623/235/1 624/236/1
f 625/225/1 626/226/1 627/227/1 628/228/1
f 629/221/1 630/222/1 631/223/1 632/224/1
f 633/233/1 634/234/1 635/235/1 636/236/1
f 637/237/1 638/238/1 639/239/1 640/240/1
f 641/217/1 642/218/1 643/219/1 644/220/1
f 645/241/1 646/242/1 647/243/1 648/244/1
f 649/229/1 650/230/1 651/231/1 652/232/1
f 653/245/1 654/246/1 655/247/1 656/248/1
f 657/213/1 658/214/1 659/215/1 660/216/1
f 661/221/1 662/222/1 663/223/1 664/224/1
f 665/241/1 666/242/1 667/243/1 668/244/1
f 669/249/1 670/250/1 671/251/1 672/252/1
f 673/245/1 674/246/1 675/247/1 676/248/1
f 677/237/1 678/238/1 679/239/1 680/240/1
f 681/253/1 682/254/1 683/255/1 684/256/1
f 685/185/1 686/186/1 687/187/1 688/188/1
f 689/185/1 690/186/1 691/187/1 692/188/1

