# Tiled2Unity generated file. Do not modify by hand.
# Wavefront file for 'cave-test_mesh_0004.obj'

# Vertices (Count = 180)
v -0.64 -1.28 0
v -0.96 -1.28 0
v -0.96 -0.96 0
v -0.64 -0.96 0
v -0.96 -1.28 0
v -1.28 -1.28 0
v -1.28 -0.96 0
v -0.96 -0.96 0
v -1.28 -1.28 0
v -1.6 -1.28 0
v -1.6 -0.96 0
v -1.28 -0.96 0
v -0.64 -1.6 0
v -0.96 -1.6 0
v -0.96 -1.28 0
v -0.64 -1.28 0
v -0.96 -1.6 0
v -1.28 -1.6 0
v -1.28 -1.28 0
v -0.96 -1.28 0
v -1.28 -1.6 0
v -1.6 -1.6 0
v -1.6 -1.28 0
v -1.28 -1.28 0
v -0.64 -1.92 0
v -0.96 -1.92 0
v -0.96 -1.6 0
v -0.64 -1.6 0
v -0.96 -1.92 0
v -1.28 -1.92 0
v -1.28 -1.6 0
v -0.96 -1.6 0
v -1.28 -1.92 0
v -1.6 -1.92 0
v -1.6 -1.6 0
v -1.28 -1.6 0
v -0.64 -2.24 0
v -0.96 -2.24 0
v -0.96 -1.92 0
v -0.64 -1.92 0
v -0.96 -2.24 0
v -1.28 -2.24 0
v -1.28 -1.92 0
v -0.96 -1.92 0
v -1.28 -2.24 0
v -1.6 -2.24 0
v -1.6 -1.92 0
v -1.28 -1.92 0
v -0.64 -2.56 0
v -0.96 -2.56 0
v -0.96 -2.24 0
v -0.64 -2.24 0
v -0.96 -2.56 0
v -1.28 -2.56 0
v -1.28 -2.24 0
v -0.96 -2.24 0
v -1.28 -2.56 0
v -1.6 -2.56 0
v -1.6 -2.24 0
v -1.28 -2.24 0
v -3.52 -3.2 0
v -3.84 -3.2 0
v -3.84 -2.88 0
v -3.52 -2.88 0
v -3.84 -3.2 0
v -4.16 -3.2 0
v -4.16 -2.88 0
v -3.84 -2.88 0
v -4.16 -3.2 0
v -4.48 -3.2 0
v -4.48 -2.88 0
v -4.16 -2.88 0
v -6.4 -3.2 0
v -6.72 -3.2 0
v -6.72 -2.88 0
v -6.4 -2.88 0
v -6.72 -3.2 0
v -7.04 -3.2 0
v -7.04 -2.88 0
v -6.72 -2.88 0
v -7.04 -3.2 0
v -7.36 -3.2 0
v -7.36 -2.88 0
v -7.04 -2.88 0
v -3.52 -3.52 0
v -3.84 -3.52 0
v -3.84 -3.2 0
v -3.52 -3.2 0
v -3.84 -3.52 0
v -4.16 -3.52 0
v -4.16 -3.2 0
v -3.84 -3.2 0
v -4.16 -3.52 0
v -4.48 -3.52 0
v -4.48 -3.2 0
v -4.16 -3.2 0
v -6.4 -3.52 0
v -6.72 -3.52 0
v -6.72 -3.2 0
v -6.4 -3.2 0
v -6.72 -3.52 0
v -7.04 -3.52 0
v -7.04 -3.2 0
v -6.72 -3.2 0
v -7.04 -3.52 0
v -7.36 -3.52 0
v -7.36 -3.2 0
v -7.04 -3.2 0
v -3.52 -3.84 0
v -3.84 -3.84 0
v -3.84 -3.52 0
v -3.52 -3.52 0
v -3.84 -3.84 0
v -4.16 -3.84 0
v -4.16 -3.52 0
v -3.84 -3.52 0
v -4.16 -3.84 0
v -4.48 -3.84 0
v -4.48 -3.52 0
v -4.16 -3.52 0
v -6.4 -3.84 0
v -6.72 -3.84 0
v -6.72 -3.52 0
v -6.4 -3.52 0
v -6.72 -3.84 0
v -7.04 -3.84 0
v -7.04 -3.52 0
v -6.72 -3.52 0
v -7.04 -3.84 0
v -7.36 -3.84 0
v -7.36 -3.52 0
v -7.04 -3.52 0
v -3.52 -4.16 0
v -3.84 -4.16 0
v -3.84 -3.84 0
v -3.52 -3.84 0
v -3.84 -4.16 0
v -4.16 -4.16 0
v -4.16 -3.84 0
v -3.84 -3.84 0
v -4.16 -4.16 0
v -4.48 -4.16 0
v -4.48 -3.84 0
v -4.16 -3.84 0
v -6.4 -4.16 0
v -6.72 -4.16 0
v -6.72 -3.84 0
v -6.4 -3.84 0
v -6.72 -4.16 0
v -7.04 -4.16 0
v -7.04 -3.84 0
v -6.72 -3.84 0
v -7.04 -4.16 0
v -7.36 -4.16 0
v -7.36 -3.84 0
v -7.04 -3.84 0
v -3.52 -4.48 0
v -3.84 -4.48 0
v -3.84 -4.16 0
v -3.52 -4.16 0
v -3.84 -4.48 0
v -4.16 -4.48 0
v -4.16 -4.16 0
v -3.84 -4.16 0
v -4.16 -4.48 0
v -4.48 -4.48 0
v -4.48 -4.16 0
v -4.16 -4.16 0
v -6.4 -4.48 0
v -6.72 -4.48 0
v -6.72 -4.16 0
v -6.4 -4.16 0
v -6.72 -4.48 0
v -7.04 -4.48 0
v -7.04 -4.16 0
v -6.72 -4.16 0
v -7.04 -4.48 0
v -7.36 -4.48 0
v -7.36 -4.16 0
v -7.04 -4.16 0

# Texture cooridinates (Count = 60)
vt 0.5501221 0.6001221
vt 0.599878 0.6001221
vt 0.599878 0.6498779
vt 0.5501221 0.6498779
vt 0.6001221 0.6001221
vt 0.6498779 0.6001221
vt 0.6498779 0.6498779
vt 0.6001221 0.6498779
vt 0.650122 0.6001221
vt 0.6998779 0.6001221
vt 0.6998779 0.6498779
vt 0.650122 0.6498779
vt 0.5501221 0.5501221
vt 0.599878 0.5501221
vt 0.599878 0.599878
vt 0.5501221 0.599878
vt 0.6001221 0.5501221
vt 0.6498779 0.5501221
vt 0.6498779 0.599878
vt 0.6001221 0.599878
vt 0.650122 0.5501221
vt 0.6998779 0.5501221
vt 0.6998779 0.599878
vt 0.650122 0.599878
vt 0.5501221 0.5001221
vt 0.599878 0.5001221
vt 0.599878 0.5498779
vt 0.5501221 0.5498779
vt 0.6001221 0.5001221
vt 0.6498779 0.5001221
vt 0.6498779 0.5498779
vt 0.6001221 0.5498779
vt 0.650122 0.5001221
vt 0.6998779 0.5001221
vt 0.6998779 0.5498779
vt 0.650122 0.5498779
vt 0.5501221 0.4501221
vt 0.599878 0.4501221
vt 0.599878 0.4998779
vt 0.5501221 0.4998779
vt 0.6001221 0.4501221
vt 0.6498779 0.4501221
vt 0.6498779 0.4998779
vt 0.6001221 0.4998779
vt 0.650122 0.4501221
vt 0.6998779 0.4501221
vt 0.6998779 0.4998779
vt 0.650122 0.4998779
vt 0.5501221 0.400122
vt 0.599878 0.400122
vt 0.599878 0.4498779
vt 0.5501221 0.4498779
vt 0.6001221 0.400122
vt 0.6498779 0.400122
vt 0.6498779 0.4498779
vt 0.6001221 0.4498779
vt 0.650122 0.400122
vt 0.6998779 0.400122
vt 0.6998779 0.4498779
vt 0.650122 0.4498779

# Normal
vn 0 0 -1

# Mesh description
g cave-test_mesh_0004

# Faces
f 1/1/1 2/2/1 3/3/1 4/4/1
f 5/5/1 6/6/1 7/7/1 8/8/1
f 9/9/1 10/10/1 11/11/1 12/12/1
f 13/13/1 14/14/1 15/15/1 16/16/1
f 17/17/1 18/18/1 19/19/1 20/20/1
f 21/21/1 22/22/1 23/23/1 24/24/1
f 25/25/1 26/26/1 27/27/1 28/28/1
f 29/29/1 30/30/1 31/31/1 32/32/1
f 33/33/1 34/34/1 35/35/1 36/36/1
f 37/37/1 38/38/1 39/39/1 40/40/1
f 41/41/1 42/42/1 43/43/1 44/44/1
f 45/45/1 46/46/1 47/47/1 48/48/1
f 49/49/1 50/50/1 51/51/1 52/52/1
f 53/53/1 54/54/1 55/55/1 56/56/1
f 57/57/1 58/58/1 59/59/1 60/60/1
f 61/1/1 62/2/1 63/3/1 64/4/1
f 65/5/1 66/6/1 67/7/1 68/8/1
f 69/9/1 70/10/1 71/11/1 72/12/1
f 73/1/1 74/2/1 75/3/1 76/4/1
f 77/5/1 78/6/1 79/7/1 80/8/1
f 81/9/1 82/10/1 83/11/1 84/12/1
f 85/13/1 86/14/1 87/15/1 88/16/1
f 89/17/1 90/18/1 91/19/1 92/20/1
f 93/21/1 94/22/1 95/23/1 96/24/1
f 97/13/1 98/14/1 99/15/1 100/16/1
f 101/17/1 102/18/1 103/19/1 104/20/1
f 105/21/1 106/22/1 107/23/1 108/24/1
f 109/25/1 110/26/1 111/27/1 112/28/1
f 113/29/1 114/30/1 115/31/1 116/32/1
f 117/33/1 118/34/1 119/35/1 120/36/1
f 121/25/1 122/26/1 123/27/1 124/28/1
f 125/29/1 126/30/1 127/31/1 128/32/1
f 129/33/1 130/34/1 131/35/1 132/36/1
f 133/37/1 134/38/1 135/39/1 136/40/1
f 137/41/1 138/42/1 139/43/1 140/44/1
f 141/45/1 142/46/1 143/47/1 144/48/1
f 145/37/1 146/38/1 147/39/1 148/40/1
f 149/41/1 150/42/1 151/43/1 152/44/1
f 153/45/1 154/46/1 155/47/1 156/48/1
f 157/49/1 158/50/1 159/51/1 160/52/1
f 161/53/1 162/54/1 163/55/1 164/56/1
f 165/57/1 166/58/1 167/59/1 168/60/1
f 169/49/1 170/50/1 171/51/1 172/52/1
f 173/53/1 174/54/1 175/55/1 176/56/1
f 177/57/1 178/58/1 179/59/1 180/60/1

