# Tiled2Unity generated file. Do not modify by hand.
# Wavefront file for 'second-test-for-depth-cave_mesh_0006.obj'

# Vertices (Count = 240)
v -6.08 -1.92 -0.12
v -6.4 -1.92 -0.12
v -6.4 -1.6 -0.12
v -6.08 -1.6 -0.12
v -6.4 -1.92 -0.12
v -6.72 -1.92 -0.12
v -6.72 -1.6 -0.12
v -6.4 -1.6 -0.12
v -6.72 -1.92 -0.12
v -7.04 -1.92 -0.12
v -7.04 -1.6 -0.12
v -6.72 -1.6 -0.12
v -7.68 -1.92 -0.12
v -8 -1.92 -0.12
v -8 -1.6 -0.12
v -7.68 -1.6 -0.12
v -8 -1.92 -0.12
v -8.32 -1.92 -0.12
v -8.32 -1.6 -0.12
v -8 -1.6 -0.12
v -8.32 -1.92 -0.12
v -8.639999 -1.92 -0.12
v -8.639999 -1.6 -0.12
v -8.32 -1.6 -0.12
v -9.28 -1.92 -0.12
v -9.599999 -1.92 -0.12
v -9.599999 -1.6 -0.12
v -9.28 -1.6 -0.12
v -9.599999 -1.92 -0.12
v -9.92 -1.92 -0.12
v -9.92 -1.6 -0.12
v -9.599999 -1.6 -0.12
v -9.92 -1.92 -0.12
v -10.24 -1.92 -0.12
v -10.24 -1.6 -0.12
v -9.92 -1.6 -0.12
v -10.88 -1.92 -0.12
v -11.2 -1.92 -0.12
v -11.2 -1.6 -0.12
v -10.88 -1.6 -0.12
v -11.2 -1.92 -0.12
v -11.52 -1.92 -0.12
v -11.52 -1.6 -0.12
v -11.2 -1.6 -0.12
v -11.52 -1.92 -0.12
v -11.84 -1.92 -0.12
v -11.84 -1.6 -0.12
v -11.52 -1.6 -0.12
v -6.08 -2.24 -0.14
v -6.4 -2.24 -0.14
v -6.4 -1.92 -0.14
v -6.08 -1.92 -0.14
v -6.4 -2.24 -0.14
v -6.72 -2.24 -0.14
v -6.72 -1.92 -0.14
v -6.4 -1.92 -0.14
v -6.72 -2.24 -0.14
v -7.04 -2.24 -0.14
v -7.04 -1.92 -0.14
v -6.72 -1.92 -0.14
v -7.68 -2.24 -0.14
v -8 -2.24 -0.14
v -8 -1.92 -0.14
v -7.68 -1.92 -0.14
v -8 -2.24 -0.14
v -8.32 -2.24 -0.14
v -8.32 -1.92 -0.14
v -8 -1.92 -0.14
v -8.32 -2.24 -0.14
v -8.639999 -2.24 -0.14
v -8.639999 -1.92 -0.14
v -8.32 -1.92 -0.14
v -9.28 -2.24 -0.14
v -9.599999 -2.24 -0.14
v -9.599999 -1.92 -0.14
v -9.28 -1.92 -0.14
v -9.599999 -2.24 -0.14
v -9.92 -2.24 -0.14
v -9.92 -1.92 -0.14
v -9.599999 -1.92 -0.14
v -9.92 -2.24 -0.14
v -10.24 -2.24 -0.14
v -10.24 -1.92 -0.14
v -9.92 -1.92 -0.14
v -10.88 -2.24 -0.14
v -11.2 -2.24 -0.14
v -11.2 -1.92 -0.14
v -10.88 -1.92 -0.14
v -11.2 -2.24 -0.14
v -11.52 -2.24 -0.14
v -11.52 -1.92 -0.14
v -11.2 -1.92 -0.14
v -11.52 -2.24 -0.14
v -11.84 -2.24 -0.14
v -11.84 -1.92 -0.14
v -11.52 -1.92 -0.14
v -6.08 -2.56 -0.16
v -6.4 -2.56 -0.16
v -6.4 -2.24 -0.16
v -6.08 -2.24 -0.16
v -6.4 -2.56 -0.16
v -6.72 -2.56 -0.16
v -6.72 -2.24 -0.16
v -6.4 -2.24 -0.16
v -6.72 -2.56 -0.16
v -7.04 -2.56 -0.16
v -7.04 -2.24 -0.16
v -6.72 -2.24 -0.16
v -7.68 -2.56 -0.16
v -8 -2.56 -0.16
v -8 -2.24 -0.16
v -7.68 -2.24 -0.16
v -8 -2.56 -0.16
v -8.32 -2.56 -0.16
v -8.32 -2.24 -0.16
v -8 -2.24 -0.16
v -8.32 -2.56 -0.16
v -8.639999 -2.56 -0.16
v -8.639999 -2.24 -0.16
v -8.32 -2.24 -0.16
v -9.28 -2.56 -0.16
v -9.599999 -2.56 -0.16
v -9.599999 -2.24 -0.16
v -9.28 -2.24 -0.16
v -9.599999 -2.56 -0.16
v -9.92 -2.56 -0.16
v -9.92 -2.24 -0.16
v -9.599999 -2.24 -0.16
v -9.92 -2.56 -0.16
v -10.24 -2.56 -0.16
v -10.24 -2.24 -0.16
v -9.92 -2.24 -0.16
v -10.88 -2.56 -0.16
v -11.2 -2.56 -0.16
v -11.2 -2.24 -0.16
v -10.88 -2.24 -0.16
v -11.2 -2.56 -0.16
v -11.52 -2.56 -0.16
v -11.52 -2.24 -0.16
v -11.2 -2.24 -0.16
v -11.52 -2.56 -0.16
v -11.84 -2.56 -0.16
v -11.84 -2.24 -0.16
v -11.52 -2.24 -0.16
v -6.08 -2.88 -0.18
v -6.4 -2.88 -0.18
v -6.4 -2.56 -0.18
v -6.08 -2.56 -0.18
v -6.4 -2.88 -0.18
v -6.72 -2.88 -0.18
v -6.72 -2.56 -0.18
v -6.4 -2.56 -0.18
v -6.72 -2.88 -0.18
v -7.04 -2.88 -0.18
v -7.04 -2.56 -0.18
v -6.72 -2.56 -0.18
v -7.68 -2.88 -0.18
v -8 -2.88 -0.18
v -8 -2.56 -0.18
v -7.68 -2.56 -0.18
v -8 -2.88 -0.18
v -8.32 -2.88 -0.18
v -8.32 -2.56 -0.18
v -8 -2.56 -0.18
v -8.32 -2.88 -0.18
v -8.639999 -2.88 -0.18
v -8.639999 -2.56 -0.18
v -8.32 -2.56 -0.18
v -9.28 -2.88 -0.18
v -9.599999 -2.88 -0.18
v -9.599999 -2.56 -0.18
v -9.28 -2.56 -0.18
v -9.599999 -2.88 -0.18
v -9.92 -2.88 -0.18
v -9.92 -2.56 -0.18
v -9.599999 -2.56 -0.18
v -9.92 -2.88 -0.18
v -10.24 -2.88 -0.18
v -10.24 -2.56 -0.18
v -9.92 -2.56 -0.18
v -10.88 -2.88 -0.18
v -11.2 -2.88 -0.18
v -11.2 -2.56 -0.18
v -10.88 -2.56 -0.18
v -11.2 -2.88 -0.18
v -11.52 -2.88 -0.18
v -11.52 -2.56 -0.18
v -11.2 -2.56 -0.18
v -11.52 -2.88 -0.18
v -11.84 -2.88 -0.18
v -11.84 -2.56 -0.18
v -11.52 -2.56 -0.18
v -6.08 -3.2 -0.2
v -6.4 -3.2 -0.2
v -6.4 -2.88 -0.2
v -6.08 -2.88 -0.2
v -6.4 -3.2 -0.2
v -6.72 -3.2 -0.2
v -6.72 -2.88 -0.2
v -6.4 -2.88 -0.2
v -6.72 -3.2 -0.2
v -7.04 -3.2 -0.2
v -7.04 -2.88 -0.2
v -6.72 -2.88 -0.2
v -7.68 -3.2 -0.2
v -8 -3.2 -0.2
v -8 -2.88 -0.2
v -7.68 -2.88 -0.2
v -8 -3.2 -0.2
v -8.32 -3.2 -0.2
v -8.32 -2.88 -0.2
v -8 -2.88 -0.2
v -8.32 -3.2 -0.2
v -8.639999 -3.2 -0.2
v -8.639999 -2.88 -0.2
v -8.32 -2.88 -0.2
v -9.28 -3.2 -0.2
v -9.599999 -3.2 -0.2
v -9.599999 -2.88 -0.2
v -9.28 -2.88 -0.2
v -9.599999 -3.2 -0.2
v -9.92 -3.2 -0.2
v -9.92 -2.88 -0.2
v -9.599999 -2.88 -0.2
v -9.92 -3.2 -0.2
v -10.24 -3.2 -0.2
v -10.24 -2.88 -0.2
v -9.92 -2.88 -0.2
v -10.88 -3.2 -0.2
v -11.2 -3.2 -0.2
v -11.2 -2.88 -0.2
v -10.88 -2.88 -0.2
v -11.2 -3.2 -0.2
v -11.52 -3.2 -0.2
v -11.52 -2.88 -0.2
v -11.2 -2.88 -0.2
v -11.52 -3.2 -0.2
v -11.84 -3.2 -0.2
v -11.84 -2.88 -0.2
v -11.52 -2.88 -0.2

# Texture cooridinates (Count = 60)
vt 0.5501221 0.6001221
vt 0.599878 0.6001221
vt 0.599878 0.6498779
vt 0.5501221 0.6498779
vt 0.6001221 0.6001221
vt 0.6498779 0.6001221
vt 0.6498779 0.6498779
vt 0.6001221 0.6498779
vt 0.650122 0.6001221
vt 0.6998779 0.6001221
vt 0.6998779 0.6498779
vt 0.650122 0.6498779
vt 0.5501221 0.5501221
vt 0.599878 0.5501221
vt 0.599878 0.599878
vt 0.5501221 0.599878
vt 0.6001221 0.5501221
vt 0.6498779 0.5501221
vt 0.6498779 0.599878
vt 0.6001221 0.599878
vt 0.650122 0.5501221
vt 0.6998779 0.5501221
vt 0.6998779 0.599878
vt 0.650122 0.599878
vt 0.5501221 0.5001221
vt 0.599878 0.5001221
vt 0.599878 0.5498779
vt 0.5501221 0.5498779
vt 0.6001221 0.5001221
vt 0.6498779 0.5001221
vt 0.6498779 0.5498779
vt 0.6001221 0.5498779
vt 0.650122 0.5001221
vt 0.6998779 0.5001221
vt 0.6998779 0.5498779
vt 0.650122 0.5498779
vt 0.5501221 0.4501221
vt 0.599878 0.4501221
vt 0.599878 0.4998779
vt 0.5501221 0.4998779
vt 0.6001221 0.4501221
vt 0.6498779 0.4501221
vt 0.6498779 0.4998779
vt 0.6001221 0.4998779
vt 0.650122 0.4501221
vt 0.6998779 0.4501221
vt 0.6998779 0.4998779
vt 0.650122 0.4998779
vt 0.5501221 0.400122
vt 0.599878 0.400122
vt 0.599878 0.4498779
vt 0.5501221 0.4498779
vt 0.6001221 0.400122
vt 0.6498779 0.400122
vt 0.6498779 0.4498779
vt 0.6001221 0.4498779
vt 0.650122 0.400122
vt 0.6998779 0.400122
vt 0.6998779 0.4498779
vt 0.650122 0.4498779

# Normal
vn 0 0 -1

# Mesh description
g second-test-for-depth-cave_mesh_0006

# Faces
f 1/1/1 2/2/1 3/3/1 4/4/1
f 5/5/1 6/6/1 7/7/1 8/8/1
f 9/9/1 10/10/1 11/11/1 12/12/1
f 13/1/1 14/2/1 15/3/1 16/4/1
f 17/5/1 18/6/1 19/7/1 20/8/1
f 21/9/1 22/10/1 23/11/1 24/12/1
f 25/1/1 26/2/1 27/3/1 28/4/1
f 29/5/1 30/6/1 31/7/1 32/8/1
f 33/9/1 34/10/1 35/11/1 36/12/1
f 37/1/1 38/2/1 39/3/1 40/4/1
f 41/5/1 42/6/1 43/7/1 44/8/1
f 45/9/1 46/10/1 47/11/1 48/12/1
f 49/13/1 50/14/1 51/15/1 52/16/1
f 53/17/1 54/18/1 55/19/1 56/20/1
f 57/21/1 58/22/1 59/23/1 60/24/1
f 61/13/1 62/14/1 63/15/1 64/16/1
f 65/17/1 66/18/1 67/19/1 68/20/1
f 69/21/1 70/22/1 71/23/1 72/24/1
f 73/13/1 74/14/1 75/15/1 76/16/1
f 77/17/1 78/18/1 79/19/1 80/20/1
f 81/21/1 82/22/1 83/23/1 84/24/1
f 85/13/1 86/14/1 87/15/1 88/16/1
f 89/17/1 90/18/1 91/19/1 92/20/1
f 93/21/1 94/22/1 95/23/1 96/24/1
f 97/25/1 98/26/1 99/27/1 100/28/1
f 101/29/1 102/30/1 103/31/1 104/32/1
f 105/33/1 106/34/1 107/35/1 108/36/1
f 109/25/1 110/26/1 111/27/1 112/28/1
f 113/29/1 114/30/1 115/31/1 116/32/1
f 117/33/1 118/34/1 119/35/1 120/36/1
f 121/25/1 122/26/1 123/27/1 124/28/1
f 125/29/1 126/30/1 127/31/1 128/32/1
f 129/33/1 130/34/1 131/35/1 132/36/1
f 133/25/1 134/26/1 135/27/1 136/28/1
f 137/29/1 138/30/1 139/31/1 140/32/1
f 141/33/1 142/34/1 143/35/1 144/36/1
f 145/37/1 146/38/1 147/39/1 148/40/1
f 149/41/1 150/42/1 151/43/1 152/44/1
f 153/45/1 154/46/1 155/47/1 156/48/1
f 157/37/1 158/38/1 159/39/1 160/40/1
f 161/41/1 162/42/1 163/43/1 164/44/1
f 165/45/1 166/46/1 167/47/1 168/48/1
f 169/37/1 170/38/1 171/39/1 172/40/1
f 173/41/1 174/42/1 175/43/1 176/44/1
f 177/45/1 178/46/1 179/47/1 180/48/1
f 181/37/1 182/38/1 183/39/1 184/40/1
f 185/41/1 186/42/1 187/43/1 188/44/1
f 189/45/1 190/46/1 191/47/1 192/48/1
f 193/49/1 194/50/1 195/51/1 196/52/1
f 197/53/1 198/54/1 199/55/1 200/56/1
f 201/57/1 202/58/1 203/59/1 204/60/1
f 205/49/1 206/50/1 207/51/1 208/52/1
f 209/53/1 210/54/1 211/55/1 212/56/1
f 213/57/1 214/58/1 215/59/1 216/60/1
f 217/49/1 218/50/1 219/51/1 220/52/1
f 221/53/1 222/54/1 223/55/1 224/56/1
f 225/57/1 226/58/1 227/59/1 228/60/1
f 229/49/1 230/50/1 231/51/1 232/52/1
f 233/53/1 234/54/1 235/55/1 236/56/1
f 237/57/1 238/58/1 239/59/1 240/60/1

