# Tiled2Unity generated file. Do not modify by hand.
# Wavefront file for 'second-test-for-depth-cave_mesh_0005.obj'

# Vertices (Count = 300)
v -4.48 -0.96 -0.06
v -4.8 -0.96 -0.06
v -4.8 -0.64 -0.06
v -4.48 -0.64 -0.06
v -4.8 -0.96 -0.06
v -5.12 -0.96 -0.06
v -5.12 -0.64 -0.06
v -4.8 -0.64 -0.06
v -5.12 -0.96 -0.06
v -5.44 -0.96 -0.06
v -5.44 -0.64 -0.06
v -5.12 -0.64 -0.06
v -6.08 -0.96 -0.06
v -6.4 -0.96 -0.06
v -6.4 -0.64 -0.06
v -6.08 -0.64 -0.06
v -6.4 -0.96 -0.06
v -6.72 -0.96 -0.06
v -6.72 -0.64 -0.06
v -6.4 -0.64 -0.06
v -6.72 -0.96 -0.06
v -7.04 -0.96 -0.06
v -7.04 -0.64 -0.06
v -6.72 -0.64 -0.06
v -7.68 -0.96 -0.06
v -8 -0.96 -0.06
v -8 -0.64 -0.06
v -7.68 -0.64 -0.06
v -8 -0.96 -0.06
v -8.32 -0.96 -0.06
v -8.32 -0.64 -0.06
v -8 -0.64 -0.06
v -8.32 -0.96 -0.06
v -8.639999 -0.96 -0.06
v -8.639999 -0.64 -0.06
v -8.32 -0.64 -0.06
v -9.28 -0.96 -0.06
v -9.599999 -0.96 -0.06
v -9.599999 -0.64 -0.06
v -9.28 -0.64 -0.06
v -9.599999 -0.96 -0.06
v -9.92 -0.96 -0.06
v -9.92 -0.64 -0.06
v -9.599999 -0.64 -0.06
v -9.92 -0.96 -0.06
v -10.24 -0.96 -0.06
v -10.24 -0.64 -0.06
v -9.92 -0.64 -0.06
v -10.88 -0.96 -0.06
v -11.2 -0.96 -0.06
v -11.2 -0.64 -0.06
v -10.88 -0.64 -0.06
v -11.2 -0.96 -0.06
v -11.52 -0.96 -0.06
v -11.52 -0.64 -0.06
v -11.2 -0.64 -0.06
v -11.52 -0.96 -0.06
v -11.84 -0.96 -0.06
v -11.84 -0.64 -0.06
v -11.52 -0.64 -0.06
v -4.48 -1.28 -0.08
v -4.8 -1.28 -0.08
v -4.8 -0.96 -0.08
v -4.48 -0.96 -0.08
v -4.8 -1.28 -0.08
v -5.12 -1.28 -0.08
v -5.12 -0.96 -0.08
v -4.8 -0.96 -0.08
v -5.12 -1.28 -0.08
v -5.44 -1.28 -0.08
v -5.44 -0.96 -0.08
v -5.12 -0.96 -0.08
v -6.08 -1.28 -0.08
v -6.4 -1.28 -0.08
v -6.4 -0.96 -0.08
v -6.08 -0.96 -0.08
v -6.4 -1.28 -0.08
v -6.72 -1.28 -0.08
v -6.72 -0.96 -0.08
v -6.4 -0.96 -0.08
v -6.72 -1.28 -0.08
v -7.04 -1.28 -0.08
v -7.04 -0.96 -0.08
v -6.72 -0.96 -0.08
v -7.68 -1.28 -0.08
v -8 -1.28 -0.08
v -8 -0.96 -0.08
v -7.68 -0.96 -0.08
v -8 -1.28 -0.08
v -8.32 -1.28 -0.08
v -8.32 -0.96 -0.08
v -8 -0.96 -0.08
v -8.32 -1.28 -0.08
v -8.639999 -1.28 -0.08
v -8.639999 -0.96 -0.08
v -8.32 -0.96 -0.08
v -9.28 -1.28 -0.08
v -9.599999 -1.28 -0.08
v -9.599999 -0.96 -0.08
v -9.28 -0.96 -0.08
v -9.599999 -1.28 -0.08
v -9.92 -1.28 -0.08
v -9.92 -0.96 -0.08
v -9.599999 -0.96 -0.08
v -9.92 -1.28 -0.08
v -10.24 -1.28 -0.08
v -10.24 -0.96 -0.08
v -9.92 -0.96 -0.08
v -10.88 -1.28 -0.08
v -11.2 -1.28 -0.08
v -11.2 -0.96 -0.08
v -10.88 -0.96 -0.08
v -11.2 -1.28 -0.08
v -11.52 -1.28 -0.08
v -11.52 -0.96 -0.08
v -11.2 -0.96 -0.08
v -11.52 -1.28 -0.08
v -11.84 -1.28 -0.08
v -11.84 -0.96 -0.08
v -11.52 -0.96 -0.08
v -4.48 -1.6 -0.1
v -4.8 -1.6 -0.1
v -4.8 -1.28 -0.1
v -4.48 -1.28 -0.1
v -4.8 -1.6 -0.1
v -5.12 -1.6 -0.1
v -5.12 -1.28 -0.1
v -4.8 -1.28 -0.1
v -5.12 -1.6 -0.1
v -5.44 -1.6 -0.1
v -5.44 -1.28 -0.1
v -5.12 -1.28 -0.1
v -6.08 -1.6 -0.1
v -6.4 -1.6 -0.1
v -6.4 -1.28 -0.1
v -6.08 -1.28 -0.1
v -6.4 -1.6 -0.1
v -6.72 -1.6 -0.1
v -6.72 -1.28 -0.1
v -6.4 -1.28 -0.1
v -6.72 -1.6 -0.1
v -7.04 -1.6 -0.1
v -7.04 -1.28 -0.1
v -6.72 -1.28 -0.1
v -7.68 -1.6 -0.1
v -8 -1.6 -0.1
v -8 -1.28 -0.1
v -7.68 -1.28 -0.1
v -8 -1.6 -0.1
v -8.32 -1.6 -0.1
v -8.32 -1.28 -0.1
v -8 -1.28 -0.1
v -8.32 -1.6 -0.1
v -8.639999 -1.6 -0.1
v -8.639999 -1.28 -0.1
v -8.32 -1.28 -0.1
v -9.28 -1.6 -0.1
v -9.599999 -1.6 -0.1
v -9.599999 -1.28 -0.1
v -9.28 -1.28 -0.1
v -9.599999 -1.6 -0.1
v -9.92 -1.6 -0.1
v -9.92 -1.28 -0.1
v -9.599999 -1.28 -0.1
v -9.92 -1.6 -0.1
v -10.24 -1.6 -0.1
v -10.24 -1.28 -0.1
v -9.92 -1.28 -0.1
v -10.88 -1.6 -0.1
v -11.2 -1.6 -0.1
v -11.2 -1.28 -0.1
v -10.88 -1.28 -0.1
v -11.2 -1.6 -0.1
v -11.52 -1.6 -0.1
v -11.52 -1.28 -0.1
v -11.2 -1.28 -0.1
v -11.52 -1.6 -0.1
v -11.84 -1.6 -0.1
v -11.84 -1.28 -0.1
v -11.52 -1.28 -0.1
v -4.48 -1.92 -0.12
v -4.8 -1.92 -0.12
v -4.8 -1.6 -0.12
v -4.48 -1.6 -0.12
v -4.8 -1.92 -0.12
v -5.12 -1.92 -0.12
v -5.12 -1.6 -0.12
v -4.8 -1.6 -0.12
v -5.12 -1.92 -0.12
v -5.44 -1.92 -0.12
v -5.44 -1.6 -0.12
v -5.12 -1.6 -0.12
v -6.08 -1.92 -0.12
v -6.4 -1.92 -0.12
v -6.4 -1.6 -0.12
v -6.08 -1.6 -0.12
v -6.4 -1.92 -0.12
v -6.72 -1.92 -0.12
v -6.72 -1.6 -0.12
v -6.4 -1.6 -0.12
v -6.72 -1.92 -0.12
v -7.04 -1.92 -0.12
v -7.04 -1.6 -0.12
v -6.72 -1.6 -0.12
v -7.68 -1.92 -0.12
v -8 -1.92 -0.12
v -8 -1.6 -0.12
v -7.68 -1.6 -0.12
v -8 -1.92 -0.12
v -8.32 -1.92 -0.12
v -8.32 -1.6 -0.12
v -8 -1.6 -0.12
v -8.32 -1.92 -0.12
v -8.639999 -1.92 -0.12
v -8.639999 -1.6 -0.12
v -8.32 -1.6 -0.12
v -9.28 -1.92 -0.12
v -9.599999 -1.92 -0.12
v -9.599999 -1.6 -0.12
v -9.28 -1.6 -0.12
v -9.599999 -1.92 -0.12
v -9.92 -1.92 -0.12
v -9.92 -1.6 -0.12
v -9.599999 -1.6 -0.12
v -9.92 -1.92 -0.12
v -10.24 -1.92 -0.12
v -10.24 -1.6 -0.12
v -9.92 -1.6 -0.12
v -10.88 -1.92 -0.12
v -11.2 -1.92 -0.12
v -11.2 -1.6 -0.12
v -10.88 -1.6 -0.12
v -11.2 -1.92 -0.12
v -11.52 -1.92 -0.12
v -11.52 -1.6 -0.12
v -11.2 -1.6 -0.12
v -11.52 -1.92 -0.12
v -11.84 -1.92 -0.12
v -11.84 -1.6 -0.12
v -11.52 -1.6 -0.12
v -4.48 -2.24 -0.14
v -4.8 -2.24 -0.14
v -4.8 -1.92 -0.14
v -4.48 -1.92 -0.14
v -4.8 -2.24 -0.14
v -5.12 -2.24 -0.14
v -5.12 -1.92 -0.14
v -4.8 -1.92 -0.14
v -5.12 -2.24 -0.14
v -5.44 -2.24 -0.14
v -5.44 -1.92 -0.14
v -5.12 -1.92 -0.14
v -6.08 -2.24 -0.14
v -6.4 -2.24 -0.14
v -6.4 -1.92 -0.14
v -6.08 -1.92 -0.14
v -6.4 -2.24 -0.14
v -6.72 -2.24 -0.14
v -6.72 -1.92 -0.14
v -6.4 -1.92 -0.14
v -6.72 -2.24 -0.14
v -7.04 -2.24 -0.14
v -7.04 -1.92 -0.14
v -6.72 -1.92 -0.14
v -7.68 -2.24 -0.14
v -8 -2.24 -0.14
v -8 -1.92 -0.14
v -7.68 -1.92 -0.14
v -8 -2.24 -0.14
v -8.32 -2.24 -0.14
v -8.32 -1.92 -0.14
v -8 -1.92 -0.14
v -8.32 -2.24 -0.14
v -8.639999 -2.24 -0.14
v -8.639999 -1.92 -0.14
v -8.32 -1.92 -0.14
v -9.28 -2.24 -0.14
v -9.599999 -2.24 -0.14
v -9.599999 -1.92 -0.14
v -9.28 -1.92 -0.14
v -9.599999 -2.24 -0.14
v -9.92 -2.24 -0.14
v -9.92 -1.92 -0.14
v -9.599999 -1.92 -0.14
v -9.92 -2.24 -0.14
v -10.24 -2.24 -0.14
v -10.24 -1.92 -0.14
v -9.92 -1.92 -0.14
v -10.88 -2.24 -0.14
v -11.2 -2.24 -0.14
v -11.2 -1.92 -0.14
v -10.88 -1.92 -0.14
v -11.2 -2.24 -0.14
v -11.52 -2.24 -0.14
v -11.52 -1.92 -0.14
v -11.2 -1.92 -0.14
v -11.52 -2.24 -0.14
v -11.84 -2.24 -0.14
v -11.84 -1.92 -0.14
v -11.52 -1.92 -0.14

# Texture cooridinates (Count = 60)
vt 0.5501221 0.6001221
vt 0.599878 0.6001221
vt 0.599878 0.6498779
vt 0.5501221 0.6498779
vt 0.6001221 0.6001221
vt 0.6498779 0.6001221
vt 0.6498779 0.6498779
vt 0.6001221 0.6498779
vt 0.650122 0.6001221
vt 0.6998779 0.6001221
vt 0.6998779 0.6498779
vt 0.650122 0.6498779
vt 0.5501221 0.5501221
vt 0.599878 0.5501221
vt 0.599878 0.599878
vt 0.5501221 0.599878
vt 0.6001221 0.5501221
vt 0.6498779 0.5501221
vt 0.6498779 0.599878
vt 0.6001221 0.599878
vt 0.650122 0.5501221
vt 0.6998779 0.5501221
vt 0.6998779 0.599878
vt 0.650122 0.599878
vt 0.5501221 0.5001221
vt 0.599878 0.5001221
vt 0.599878 0.5498779
vt 0.5501221 0.5498779
vt 0.6001221 0.5001221
vt 0.6498779 0.5001221
vt 0.6498779 0.5498779
vt 0.6001221 0.5498779
vt 0.650122 0.5001221
vt 0.6998779 0.5001221
vt 0.6998779 0.5498779
vt 0.650122 0.5498779
vt 0.5501221 0.4501221
vt 0.599878 0.4501221
vt 0.599878 0.4998779
vt 0.5501221 0.4998779
vt 0.6001221 0.4501221
vt 0.6498779 0.4501221
vt 0.6498779 0.4998779
vt 0.6001221 0.4998779
vt 0.650122 0.4501221
vt 0.6998779 0.4501221
vt 0.6998779 0.4998779
vt 0.650122 0.4998779
vt 0.5501221 0.400122
vt 0.599878 0.400122
vt 0.599878 0.4498779
vt 0.5501221 0.4498779
vt 0.6001221 0.400122
vt 0.6498779 0.400122
vt 0.6498779 0.4498779
vt 0.6001221 0.4498779
vt 0.650122 0.400122
vt 0.6998779 0.400122
vt 0.6998779 0.4498779
vt 0.650122 0.4498779

# Normal
vn 0 0 -1

# Mesh description
g second-test-for-depth-cave_mesh_0005

# Faces
f 1/1/1 2/2/1 3/3/1 4/4/1
f 5/5/1 6/6/1 7/7/1 8/8/1
f 9/9/1 10/10/1 11/11/1 12/12/1
f 13/1/1 14/2/1 15/3/1 16/4/1
f 17/5/1 18/6/1 19/7/1 20/8/1
f 21/9/1 22/10/1 23/11/1 24/12/1
f 25/1/1 26/2/1 27/3/1 28/4/1
f 29/5/1 30/6/1 31/7/1 32/8/1
f 33/9/1 34/10/1 35/11/1 36/12/1
f 37/1/1 38/2/1 39/3/1 40/4/1
f 41/5/1 42/6/1 43/7/1 44/8/1
f 45/9/1 46/10/1 47/11/1 48/12/1
f 49/1/1 50/2/1 51/3/1 52/4/1
f 53/5/1 54/6/1 55/7/1 56/8/1
f 57/9/1 58/10/1 59/11/1 60/12/1
f 61/13/1 62/14/1 63/15/1 64/16/1
f 65/17/1 66/18/1 67/19/1 68/20/1
f 69/21/1 70/22/1 71/23/1 72/24/1
f 73/13/1 74/14/1 75/15/1 76/16/1
f 77/17/1 78/18/1 79/19/1 80/20/1
f 81/21/1 82/22/1 83/23/1 84/24/1
f 85/13/1 86/14/1 87/15/1 88/16/1
f 89/17/1 90/18/1 91/19/1 92/20/1
f 93/21/1 94/22/1 95/23/1 96/24/1
f 97/13/1 98/14/1 99/15/1 100/16/1
f 101/17/1 102/18/1 103/19/1 104/20/1
f 105/21/1 106/22/1 107/23/1 108/24/1
f 109/13/1 110/14/1 111/15/1 112/16/1
f 113/17/1 114/18/1 115/19/1 116/20/1
f 117/21/1 118/22/1 119/23/1 120/24/1
f 121/25/1 122/26/1 123/27/1 124/28/1
f 125/29/1 126/30/1 127/31/1 128/32/1
f 129/33/1 130/34/1 131/35/1 132/36/1
f 133/25/1 134/26/1 135/27/1 136/28/1
f 137/29/1 138/30/1 139/31/1 140/32/1
f 141/33/1 142/34/1 143/35/1 144/36/1
f 145/25/1 146/26/1 147/27/1 148/28/1
f 149/29/1 150/30/1 151/31/1 152/32/1
f 153/33/1 154/34/1 155/35/1 156/36/1
f 157/25/1 158/26/1 159/27/1 160/28/1
f 161/29/1 162/30/1 163/31/1 164/32/1
f 165/33/1 166/34/1 167/35/1 168/36/1
f 169/25/1 170/26/1 171/27/1 172/28/1
f 173/29/1 174/30/1 175/31/1 176/32/1
f 177/33/1 178/34/1 179/35/1 180/36/1
f 181/37/1 182/38/1 183/39/1 184/40/1
f 185/41/1 186/42/1 187/43/1 188/44/1
f 189/45/1 190/46/1 191/47/1 192/48/1
f 193/37/1 194/38/1 195/39/1 196/40/1
f 197/41/1 198/42/1 199/43/1 200/44/1
f 201/45/1 202/46/1 203/47/1 204/48/1
f 205/37/1 206/38/1 207/39/1 208/40/1
f 209/41/1 210/42/1 211/43/1 212/44/1
f 213/45/1 214/46/1 215/47/1 216/48/1
f 217/37/1 218/38/1 219/39/1 220/40/1
f 221/41/1 222/42/1 223/43/1 224/44/1
f 225/45/1 226/46/1 227/47/1 228/48/1
f 229/37/1 230/38/1 231/39/1 232/40/1
f 233/41/1 234/42/1 235/43/1 236/44/1
f 237/45/1 238/46/1 239/47/1 240/48/1
f 241/49/1 242/50/1 243/51/1 244/52/1
f 245/53/1 246/54/1 247/55/1 248/56/1
f 249/57/1 250/58/1 251/59/1 252/60/1
f 253/49/1 254/50/1 255/51/1 256/52/1
f 257/53/1 258/54/1 259/55/1 260/56/1
f 261/57/1 262/58/1 263/59/1 264/60/1
f 265/49/1 266/50/1 267/51/1 268/52/1
f 269/53/1 270/54/1 271/55/1 272/56/1
f 273/57/1 274/58/1 275/59/1 276/60/1
f 277/49/1 278/50/1 279/51/1 280/52/1
f 281/53/1 282/54/1 283/55/1 284/56/1
f 285/57/1 286/58/1 287/59/1 288/60/1
f 289/49/1 290/50/1 291/51/1 292/52/1
f 293/53/1 294/54/1 295/55/1 296/56/1
f 297/57/1 298/58/1 299/59/1 300/60/1

