# Tiled2Unity generated file. Do not modify by hand.
# Wavefront file for 'second-test-for-depth-cave_mesh_0003.obj'

# Vertices (Count = 240)
v -8 -5.44 -0.34
v -8.32 -5.44 -0.34
v -8.32 -5.12 -0.34
v -8 -5.12 -0.34
v -8.32 -5.44 -0.34
v -8.639999 -5.44 -0.34
v -8.639999 -5.12 -0.34
v -8.32 -5.12 -0.34
v -8.639999 -5.44 -0.34
v -8.96 -5.44 -0.34
v -8.96 -5.12 -0.34
v -8.639999 -5.12 -0.34
v -8 -5.76 -0.36
v -8.32 -5.76 -0.36
v -8.32 -5.44 -0.36
v -8 -5.44 -0.36
v -8.32 -5.76 -0.36
v -8.639999 -5.76 -0.36
v -8.639999 -5.44 -0.36
v -8.32 -5.44 -0.36
v -8.639999 -5.76 -0.36
v -8.96 -5.76 -0.36
v -8.96 -5.44 -0.36
v -8.639999 -5.44 -0.36
v -8 -6.08 -0.38
v -8.32 -6.08 -0.38
v -8.32 -5.76 -0.38
v -8 -5.76 -0.38
v -8.32 -6.08 -0.38
v -8.639999 -6.08 -0.38
v -8.639999 -5.76 -0.38
v -8.32 -5.76 -0.38
v -8.639999 -6.08 -0.38
v -8.96 -6.08 -0.38
v -8.96 -5.76 -0.38
v -8.639999 -5.76 -0.38
v -8 -6.4 -0.4
v -8.32 -6.4 -0.4
v -8.32 -6.08 -0.4
v -8 -6.08 -0.4
v -8.32 -6.4 -0.4
v -8.639999 -6.4 -0.4
v -8.639999 -6.08 -0.4
v -8.32 -6.08 -0.4
v -8.639999 -6.4 -0.4
v -8.96 -6.4 -0.4
v -8.96 -6.08 -0.4
v -8.639999 -6.08 -0.4
v -8 -6.72 -0.42
v -8.32 -6.72 -0.42
v -8.32 -6.4 -0.42
v -8 -6.4 -0.42
v -8.32 -6.72 -0.42
v -8.639999 -6.72 -0.42
v -8.639999 -6.4 -0.42
v -8.32 -6.4 -0.42
v -8.639999 -6.72 -0.42
v -8.96 -6.72 -0.42
v -8.96 -6.4 -0.42
v -8.639999 -6.4 -0.42
v -4.16 -7.04 -0.44
v -4.48 -7.04 -0.44
v -4.48 -6.72 -0.44
v -4.16 -6.72 -0.44
v -4.48 -7.04 -0.44
v -4.8 -7.04 -0.44
v -4.8 -6.72 -0.44
v -4.48 -6.72 -0.44
v -4.8 -7.04 -0.44
v -5.12 -7.04 -0.44
v -5.12 -6.72 -0.44
v -4.8 -6.72 -0.44
v -4.16 -7.36 -0.46
v -4.48 -7.36 -0.46
v -4.48 -7.04 -0.46
v -4.16 -7.04 -0.46
v -4.48 -7.36 -0.46
v -4.8 -7.36 -0.46
v -4.8 -7.04 -0.46
v -4.48 -7.04 -0.46
v -4.8 -7.36 -0.46
v -5.12 -7.36 -0.46
v -5.12 -7.04 -0.46
v -4.8 -7.04 -0.46
v -4.16 -7.68 -0.48
v -4.48 -7.68 -0.48
v -4.48 -7.36 -0.48
v -4.16 -7.36 -0.48
v -4.48 -7.68 -0.48
v -4.8 -7.68 -0.48
v -4.8 -7.36 -0.48
v -4.48 -7.36 -0.48
v -4.8 -7.68 -0.48
v -5.12 -7.68 -0.48
v -5.12 -7.36 -0.48
v -4.8 -7.36 -0.48
v -4.16 -8 -0.5
v -4.48 -8 -0.5
v -4.48 -7.68 -0.5
v -4.16 -7.68 -0.5
v -4.48 -8 -0.5
v -4.8 -8 -0.5
v -4.8 -7.68 -0.5
v -4.48 -7.68 -0.5
v -4.8 -8 -0.5
v -5.12 -8 -0.5
v -5.12 -7.68 -0.5
v -4.8 -7.68 -0.5
v -4.16 -8.32 -0.52
v -4.48 -8.32 -0.52
v -4.48 -8 -0.52
v -4.16 -8 -0.52
v -4.48 -8.32 -0.52
v -4.8 -8.32 -0.52
v -4.8 -8 -0.52
v -4.48 -8 -0.52
v -4.8 -8.32 -0.52
v -5.12 -8.32 -0.52
v -5.12 -8 -0.52
v -4.8 -8 -0.52
v -10.56 -8.32 -0.52
v -10.88 -8.32 -0.52
v -10.88 -8 -0.52
v -10.56 -8 -0.52
v -10.88 -8.32 -0.52
v -11.2 -8.32 -0.52
v -11.2 -8 -0.52
v -10.88 -8 -0.52
v -11.2 -8.32 -0.52
v -11.52 -8.32 -0.52
v -11.52 -8 -0.52
v -11.2 -8 -0.52
v -10.56 -8.639999 -0.54
v -10.88 -8.639999 -0.54
v -10.88 -8.32 -0.54
v -10.56 -8.32 -0.54
v -10.88 -8.639999 -0.54
v -11.2 -8.639999 -0.54
v -11.2 -8.32 -0.54
v -10.88 -8.32 -0.54
v -11.2 -8.639999 -0.54
v -11.52 -8.639999 -0.54
v -11.52 -8.32 -0.54
v -11.2 -8.32 -0.54
v -6.72 -8.96 -0.56
v -7.04 -8.96 -0.56
v -7.04 -8.639999 -0.56
v -6.72 -8.639999 -0.56
v -7.04 -8.96 -0.56
v -7.36 -8.96 -0.56
v -7.36 -8.639999 -0.56
v -7.04 -8.639999 -0.56
v -7.36 -8.96 -0.56
v -7.68 -8.96 -0.56
v -7.68 -8.639999 -0.56
v -7.36 -8.639999 -0.56
v -10.56 -8.96 -0.56
v -10.88 -8.96 -0.56
v -10.88 -8.639999 -0.56
v -10.56 -8.639999 -0.56
v -10.88 -8.96 -0.56
v -11.2 -8.96 -0.56
v -11.2 -8.639999 -0.56
v -10.88 -8.639999 -0.56
v -11.2 -8.96 -0.56
v -11.52 -8.96 -0.56
v -11.52 -8.639999 -0.56
v -11.2 -8.639999 -0.56
v -6.72 -9.28 -0.58
v -7.04 -9.28 -0.58
v -7.04 -8.96 -0.58
v -6.72 -8.96 -0.58
v -7.04 -9.28 -0.58
v -7.36 -9.28 -0.58
v -7.36 -8.96 -0.58
v -7.04 -8.96 -0.58
v -7.36 -9.28 -0.58
v -7.68 -9.28 -0.58
v -7.68 -8.96 -0.58
v -7.36 -8.96 -0.58
v -10.56 -9.28 -0.58
v -10.88 -9.28 -0.58
v -10.88 -8.96 -0.58
v -10.56 -8.96 -0.58
v -10.88 -9.28 -0.58
v -11.2 -9.28 -0.58
v -11.2 -8.96 -0.58
v -10.88 -8.96 -0.58
v -11.2 -9.28 -0.58
v -11.52 -9.28 -0.58
v -11.52 -8.96 -0.58
v -11.2 -8.96 -0.58
v -6.72 -9.599999 -0.6
v -7.04 -9.599999 -0.6
v -7.04 -9.28 -0.6
v -6.72 -9.28 -0.6
v -7.04 -9.599999 -0.6
v -7.36 -9.599999 -0.6
v -7.36 -9.28 -0.6
v -7.04 -9.28 -0.6
v -7.36 -9.599999 -0.6
v -7.68 -9.599999 -0.6
v -7.68 -9.28 -0.6
v -7.36 -9.28 -0.6
v -10.56 -9.599999 -0.6
v -10.88 -9.599999 -0.6
v -10.88 -9.28 -0.6
v -10.56 -9.28 -0.6
v -10.88 -9.599999 -0.6
v -11.2 -9.599999 -0.6
v -11.2 -9.28 -0.6
v -10.88 -9.28 -0.6
v -11.2 -9.599999 -0.6
v -11.52 -9.599999 -0.6
v -11.52 -9.28 -0.6
v -11.2 -9.28 -0.6
v -6.72 -9.92 -0.62
v -7.04 -9.92 -0.62
v -7.04 -9.599999 -0.62
v -6.72 -9.599999 -0.62
v -7.04 -9.92 -0.62
v -7.36 -9.92 -0.62
v -7.36 -9.599999 -0.62
v -7.04 -9.599999 -0.62
v -7.36 -9.92 -0.62
v -7.68 -9.92 -0.62
v -7.68 -9.599999 -0.62
v -7.36 -9.599999 -0.62
v -6.72 -10.24 -0.64
v -7.04 -10.24 -0.64
v -7.04 -9.92 -0.64
v -6.72 -9.92 -0.64
v -7.04 -10.24 -0.64
v -7.36 -10.24 -0.64
v -7.36 -9.92 -0.64
v -7.04 -9.92 -0.64
v -7.36 -10.24 -0.64
v -7.68 -10.24 -0.64
v -7.68 -9.92 -0.64
v -7.36 -9.92 -0.64

# Texture cooridinates (Count = 60)
vt 0.5501221 0.6001221
vt 0.599878 0.6001221
vt 0.599878 0.6498779
vt 0.5501221 0.6498779
vt 0.6001221 0.6001221
vt 0.6498779 0.6001221
vt 0.6498779 0.6498779
vt 0.6001221 0.6498779
vt 0.650122 0.6001221
vt 0.6998779 0.6001221
vt 0.6998779 0.6498779
vt 0.650122 0.6498779
vt 0.5501221 0.5501221
vt 0.599878 0.5501221
vt 0.599878 0.599878
vt 0.5501221 0.599878
vt 0.6001221 0.5501221
vt 0.6498779 0.5501221
vt 0.6498779 0.599878
vt 0.6001221 0.599878
vt 0.650122 0.5501221
vt 0.6998779 0.5501221
vt 0.6998779 0.599878
vt 0.650122 0.599878
vt 0.5501221 0.5001221
vt 0.599878 0.5001221
vt 0.599878 0.5498779
vt 0.5501221 0.5498779
vt 0.6001221 0.5001221
vt 0.6498779 0.5001221
vt 0.6498779 0.5498779
vt 0.6001221 0.5498779
vt 0.650122 0.5001221
vt 0.6998779 0.5001221
vt 0.6998779 0.5498779
vt 0.650122 0.5498779
vt 0.5501221 0.4501221
vt 0.599878 0.4501221
vt 0.599878 0.4998779
vt 0.5501221 0.4998779
vt 0.6001221 0.4501221
vt 0.6498779 0.4501221
vt 0.6498779 0.4998779
vt 0.6001221 0.4998779
vt 0.650122 0.4501221
vt 0.6998779 0.4501221
vt 0.6998779 0.4998779
vt 0.650122 0.4998779
vt 0.5501221 0.400122
vt 0.599878 0.400122
vt 0.599878 0.4498779
vt 0.5501221 0.4498779
vt 0.6001221 0.400122
vt 0.6498779 0.400122
vt 0.6498779 0.4498779
vt 0.6001221 0.4498779
vt 0.650122 0.400122
vt 0.6998779 0.400122
vt 0.6998779 0.4498779
vt 0.650122 0.4498779

# Normal
vn 0 0 -1

# Mesh description
g second-test-for-depth-cave_mesh_0003

# Faces
f 1/1/1 2/2/1 3/3/1 4/4/1
f 5/5/1 6/6/1 7/7/1 8/8/1
f 9/9/1 10/10/1 11/11/1 12/12/1
f 13/13/1 14/14/1 15/15/1 16/16/1
f 17/17/1 18/18/1 19/19/1 20/20/1
f 21/21/1 22/22/1 23/23/1 24/24/1
f 25/25/1 26/26/1 27/27/1 28/28/1
f 29/29/1 30/30/1 31/31/1 32/32/1
f 33/33/1 34/34/1 35/35/1 36/36/1
f 37/37/1 38/38/1 39/39/1 40/40/1
f 41/41/1 42/42/1 43/43/1 44/44/1
f 45/45/1 46/46/1 47/47/1 48/48/1
f 49/49/1 50/50/1 51/51/1 52/52/1
f 53/53/1 54/54/1 55/55/1 56/56/1
f 57/57/1 58/58/1 59/59/1 60/60/1
f 61/1/1 62/2/1 63/3/1 64/4/1
f 65/5/1 66/6/1 67/7/1 68/8/1
f 69/9/1 70/10/1 71/11/1 72/12/1
f 73/13/1 74/14/1 75/15/1 76/16/1
f 77/17/1 78/18/1 79/19/1 80/20/1
f 81/21/1 82/22/1 83/23/1 84/24/1
f 85/25/1 86/26/1 87/27/1 88/28/1
f 89/29/1 90/30/1 91/31/1 92/32/1
f 93/33/1 94/34/1 95/35/1 96/36/1
f 97/37/1 98/38/1 99/39/1 100/40/1
f 101/41/1 102/42/1 103/43/1 104/44/1
f 105/45/1 106/46/1 107/47/1 108/48/1
f 109/49/1 110/50/1 111/51/1 112/52/1
f 113/53/1 114/54/1 115/55/1 116/56/1
f 117/57/1 118/58/1 119/59/1 120/60/1
f 121/1/1 122/2/1 123/3/1 124/4/1
f 125/5/1 126/6/1 127/7/1 128/8/1
f 129/9/1 130/10/1 131/11/1 132/12/1
f 133/13/1 134/14/1 135/15/1 136/16/1
f 137/17/1 138/18/1 139/19/1 140/20/1
f 141/21/1 142/22/1 143/23/1 144/24/1
f 145/1/1 146/2/1 147/3/1 148/4/1
f 149/5/1 150/6/1 151/7/1 152/8/1
f 153/9/1 154/10/1 155/11/1 156/12/1
f 157/25/1 158/26/1 159/27/1 160/28/1
f 161/29/1 162/30/1 163/31/1 164/32/1
f 165/33/1 166/34/1 167/35/1 168/36/1
f 169/13/1 170/14/1 171/15/1 172/16/1
f 173/17/1 174/18/1 175/19/1 176/20/1
f 177/21/1 178/22/1 179/23/1 180/24/1
f 181/37/1 182/38/1 183/39/1 184/40/1
f 185/41/1 186/42/1 187/43/1 188/44/1
f 189/45/1 190/46/1 191/47/1 192/48/1
f 193/25/1 194/26/1 195/27/1 196/28/1
f 197/29/1 198/30/1 199/31/1 200/32/1
f 201/33/1 202/34/1 203/35/1 204/36/1
f 205/49/1 206/50/1 207/51/1 208/52/1
f 209/53/1 210/54/1 211/55/1 212/56/1
f 213/57/1 214/58/1 215/59/1 216/60/1
f 217/37/1 218/38/1 219/39/1 220/40/1
f 221/41/1 222/42/1 223/43/1 224/44/1
f 225/45/1 226/46/1 227/47/1 228/48/1
f 229/49/1 230/50/1 231/51/1 232/52/1
f 233/53/1 234/54/1 235/55/1 236/56/1
f 237/57/1 238/58/1 239/59/1 240/60/1

